<svg preserveAspectRatio="none" width="100%" height="100%" overflow="visible" style="display: block;" viewBox="0 0 56 56" fill="none" xmlns="http://www.w3.org/2000/svg">
<g id="SVG - xml version=&#34;1.0&#34; encoding=&#34;UTF-8">
<path id="Vector" d="M19.6875 5.25V3.5C19.6875 2.77561 20.2756 2.1875 21 2.1875C21.7244 2.1875 22.3125 2.77561 22.3125 3.5V5.25C22.3125 5.97439 21.7244 6.5625 21 6.5625C20.2756 6.5625 19.6875 5.97439 19.6875 5.25V5.25M3.5 22.3125H5.25C5.97439 22.3125 6.5625 21.7244 6.5625 21C6.5625 20.2756 5.97439 19.6875 5.25 19.6875H3.5C2.77561 19.6875 2.1875 20.2756 2.1875 21C2.1875 21.7244 2.77561 22.3125 3.5 22.3125V22.3125M27.4138 8.17469C27.7253 8.33027 28.0859 8.35567 28.4161 8.24531C28.7464 8.13495 29.0193 7.89786 29.1747 7.58625L30.9247 4.08625C31.2489 3.43792 30.9857 2.64838 30.3373 2.32422C29.689 2.00005 28.8995 2.26323 28.5753 2.91156L26.8253 6.41156C26.669 6.72332 26.6433 7.08444 26.7537 7.41523C26.8641 7.74602 27.1016 8.01928 27.4138 8.17469V8.17469M6.41375 26.8253L2.91375 28.5753C2.26542 28.8989 2.00175 29.6879 2.32531 30.3363C2.64887 30.9846 3.43792 31.2482 4.08625 30.9247L7.58625 29.1747C8.00593 28.9652 8.28198 28.5478 8.31043 28.0796C8.33889 27.6115 8.11541 27.1637 7.72418 26.9049C7.33296 26.6462 6.83343 26.6159 6.41375 26.8253V26.8253M47.6656 40.5584C48.24 41.1328 48.5627 41.9118 48.5627 42.7241C48.5627 43.5363 48.24 44.3153 47.6656 44.8897L44.8897 47.6656C44.3153 48.24 43.5363 48.5627 42.7241 48.5627C41.9118 48.5627 41.1328 48.24 40.5584 47.6656L29.3344 36.4416C29.2343 36.3418 29.0922 36.2965 28.9529 36.3199C28.8135 36.3434 28.6941 36.4327 28.6322 36.5597L24.7494 46.6747C24.7412 46.6918 24.7339 46.7093 24.7275 46.7272C24.2482 47.8444 23.1476 48.567 21.9319 48.5625C21.8816 48.5625 21.8334 48.5625 21.7831 48.5625C20.5157 48.5064 19.4175 47.6666 19.0313 46.4581L7.59063 11.4406C7.24126 10.3485 7.53121 9.15277 8.34199 8.34199C9.15277 7.53121 10.3485 7.24126 11.4406 7.59062L46.4581 19.0312C47.646 19.4384 48.465 20.5293 48.5243 21.7836C48.5837 23.0379 47.8713 24.2013 46.7272 24.7188L46.6747 24.7384L36.5575 28.6234C36.4308 28.6858 36.342 28.8054 36.319 28.9447C36.296 29.084 36.3416 29.2259 36.4416 29.3256L47.6656 40.5584M45.8084 42.4156L34.5844 31.1916V31.1916C33.8677 30.4749 33.552 29.4501 33.7411 28.4544C33.9303 27.4587 34.5998 26.6211 35.5294 26.2172L35.5819 26.1953L45.6991 22.3125C45.8468 22.2295 45.9334 22.0686 45.9212 21.8996C45.909 21.7306 45.8003 21.5838 45.6422 21.5228L10.6269 10.0866C10.5809 10.0718 10.533 10.0637 10.4847 10.0625C10.3498 10.0688 10.2254 10.137 10.1476 10.2473C10.0698 10.3577 10.0473 10.4977 10.0866 10.6269L21.5206 45.6422C21.5688 45.8164 21.7271 45.9371 21.9078 45.9375C22.0796 45.9543 22.2425 45.8578 22.3103 45.6991L26.1953 35.5819L26.2172 35.5294C26.6211 34.5998 27.4587 33.9303 28.4544 33.7411C29.4501 33.552 30.4749 33.8677 31.1916 34.5844L42.4156 45.8084C42.4977 45.8906 42.609 45.9368 42.7252 45.9368C42.8413 45.9368 42.9526 45.8906 43.0347 45.8084L45.8084 43.0347C45.8906 42.9526 45.9367 42.8413 45.9367 42.7252C45.9367 42.609 45.8906 42.4977 45.8084 42.4156V42.4156" fill="var(--fill-0, #B7BCBD)"/>
</g>
</svg>
