<svg preserveAspectRatio="none" width="100%" height="100%" overflow="visible" style="display: block;" viewBox="0 0 56 56" fill="none" xmlns="http://www.w3.org/2000/svg">
<g id="SVG - xml version=&#34;1.0&#34; encoding=&#34;UTF-8">
<path id="Vector" d="M45.5 7.4375H35C33.3098 7.4375 31.9375 8.80976 31.9375 10.5V45.5C31.9375 47.1902 33.3098 48.5625 35 48.5625H45.5C47.1902 48.5625 48.5625 47.1902 48.5625 45.5V10.5C48.5625 8.80976 47.1902 7.4375 45.5 7.4375V7.4375M45.9375 45.5C45.9375 45.7415 45.7415 45.9375 45.5 45.9375H35C34.7585 45.9375 34.5625 45.7415 34.5625 45.5V38.0625H40.25C40.9744 38.0625 41.5625 37.4744 41.5625 36.75C41.5625 36.0256 40.9744 35.4375 40.25 35.4375H34.5625V29.3125H40.25C40.9744 29.3125 41.5625 28.7244 41.5625 28C41.5625 27.2756 40.9744 26.6875 40.25 26.6875H34.5625V20.5625H40.25C40.9744 20.5625 41.5625 19.9744 41.5625 19.25C41.5625 18.5256 40.9744 17.9375 40.25 17.9375H34.5625V10.5C34.5625 10.2585 34.7585 10.0625 35 10.0625H45.5C45.7415 10.0625 45.9375 10.2585 45.9375 10.5V45.5M16.6775 6.0725C16.1651 5.56071 15.3349 5.56071 14.8225 6.0725L7.8225 13.0725C7.57629 13.3184 7.43781 13.652 7.4375 14V45.5C7.4375 47.1902 8.80976 48.5625 10.5 48.5625H21C22.6914 48.5625 24.0625 47.1914 24.0625 45.5V14C24.0622 13.652 23.9237 13.3184 23.6775 13.0725L16.6775 6.0725M10.0625 38.9375V17.0625H14.4375V38.9375H10.0625M17.0625 17.0625H21.4375V38.9375H17.0625V17.0625M15.75 8.85719L21.3303 14.4375H10.1741L15.75 8.85719M21 45.9375H10.5C10.2585 45.9375 10.0625 45.7415 10.0625 45.5V41.5625H21.4375V45.5C21.4375 45.7415 21.2415 45.9375 21 45.9375V45.9375" fill="var(--fill-0, #B7BCBD)"/>
</g>
</svg>
