<svg preserveAspectRatio="none" width="100%" height="100%" overflow="visible" style="display: block;" viewBox="0 0 56 56" fill="none" xmlns="http://www.w3.org/2000/svg">
<g id="SVG - xml version=&#34;1.0&#34; encoding=&#34;UTF-8">
<path id="Vector" d="M7.4375 14C7.4375 13.2756 8.02561 12.6875 8.75 12.6875H47.25C47.9744 12.6875 48.5625 13.2756 48.5625 14C48.5625 14.7244 47.9744 15.3125 47.25 15.3125H8.75C8.02561 15.3125 7.4375 14.7244 7.4375 14V14M8.75 29.3125H24.5C25.2244 29.3125 25.8125 28.7244 25.8125 28C25.8125 27.2756 25.2244 26.6875 24.5 26.6875H8.75C8.02561 26.6875 7.4375 27.2756 7.4375 28C7.4375 28.7244 8.02561 29.3125 8.75 29.3125V29.3125M28 40.6875H8.75C8.02561 40.6875 7.4375 41.2756 7.4375 42C7.4375 42.7244 8.02561 43.3125 8.75 43.3125H28C28.7244 43.3125 29.3125 42.7244 29.3125 42C29.3125 41.2756 28.7244 40.6875 28 40.6875V40.6875M51.6775 42.9275C51.1651 43.4393 50.3349 43.4393 49.8225 42.9275L45.1216 38.2288C41.6049 40.7767 36.7205 40.1937 33.9023 36.8896C31.0842 33.5856 31.2789 28.6704 34.3496 25.5996C37.4204 22.5289 42.3356 22.3342 45.6396 25.1523C48.9437 27.9705 49.5267 32.8549 46.9787 36.3716L51.6775 41.0725C52.1893 41.5849 52.1893 42.4151 51.6775 42.9275V42.9275M40.25 37.1875C43.389 37.1875 45.9375 34.639 45.9375 31.5C45.9375 28.361 43.389 25.8125 40.25 25.8125C37.111 25.8125 34.5625 28.361 34.5625 31.5C34.5625 34.639 37.111 37.1875 40.25 37.1875V37.1875" fill="var(--fill-0, #B7BCBD)"/>
</g>
</svg>
