<svg preserveAspectRatio="none" width="100%" height="100%" overflow="visible" style="display: block;" viewBox="0 0 56 56" fill="none" xmlns="http://www.w3.org/2000/svg">
<g id="SVG - xml version=&#34;1.0&#34; encoding=&#34;UTF-8">
<path id="Vector" d="M49.875 19.3791L11.3575 7.56656C10.4332 7.29698 9.43597 7.47774 8.66512 8.05459C7.89427 8.63144 7.43956 9.53721 7.4375 10.5V42C7.4375 43.6902 8.80976 45.0625 10.5 45.0625C10.7962 45.0603 11.0907 45.0169 11.375 44.9334L30.1875 39.1562V42C30.1875 43.6902 31.5598 45.0625 33.25 45.0625H40.25C41.9402 45.0625 43.3125 43.6902 43.3125 42V35.1356L49.875 33.1253C51.1709 32.7337 52.0588 31.5413 52.0625 30.1875V22.3125C52.0619 20.9587 51.1724 19.7659 49.875 19.3791V19.3791M10.6225 42.42C10.4903 42.4586 10.3477 42.4326 10.2375 42.35C10.1273 42.2674 10.0625 42.1377 10.0625 42V10.5C10.0625 10.3623 10.1273 10.2326 10.2375 10.15C10.3136 10.0939 10.4055 10.0633 10.5 10.0625C10.5364 10.0633 10.5724 10.0692 10.6072 10.08L30.1875 16.0847V36.4175L10.6225 42.42M40.6875 42C40.6875 42.2415 40.4915 42.4375 40.25 42.4375H33.25C33.0085 42.4375 32.8125 42.2415 32.8125 42V38.3578L40.6875 35.9516V42M49.4375 30.1875C49.4375 30.3819 49.3092 30.5531 49.1225 30.6075H49.105L32.8125 35.6125V16.8897L49.1225 21.8925C49.3092 21.9469 49.4375 22.1181 49.4375 22.3125V30.1875" fill="var(--fill-0, #B7BCBD)"/>
</g>
</svg>
