<svg preserveAspectRatio="none" width="100%" height="100%" overflow="visible" style="display: block;" viewBox="0 0 220 110" fill="none" xmlns="http://www.w3.org/2000/svg">
<g id="logo-art-08.svg">
<path id="Vector" d="M189.921 65.8086C188.185 65.8086 186.662 65.4327 185.35 64.6805C184.038 63.9287 183.011 62.8856 182.271 61.5513C181.541 60.2167 181.176 58.6811 181.176 56.9445C181.176 55.0698 181.535 53.4443 182.255 52.0677C182.975 50.6803 183.974 49.6053 185.255 48.8427C186.535 48.0804 188.016 47.699 189.698 47.699C191.476 47.699 192.983 48.1173 194.221 48.9541C195.47 49.7799 196.395 50.9503 196.998 52.4648C197.602 53.9792 197.829 55.7637 197.681 57.8182H193.888V56.4201C193.877 54.5564 193.549 53.1954 192.904 52.3377C192.259 51.4797 191.243 51.051 189.857 51.051C188.291 51.051 187.127 51.538 186.365 52.5123C185.604 53.4762 185.223 54.89 185.223 56.7537C185.223 58.4906 185.604 59.8356 186.365 60.7887C187.127 61.7419 188.238 62.2185 189.698 62.2185C190.64 62.2185 191.449 62.0119 192.126 61.5989C192.814 61.1751 193.343 60.5663 193.713 59.7721L197.49 60.9158C196.835 62.4619 195.819 63.6639 194.443 64.5219C193.079 65.3796 191.571 65.8086 189.921 65.8086V65.8086M184.017 57.8182V54.9268H195.808V57.8182H184.017V57.8182M169.761 65.332V48.1756H173.141V52.3534L172.728 51.8133C172.932 51.2564 173.215 50.732 173.569 50.2565C173.921 49.7877 174.357 49.3891 174.855 49.0812C175.285 48.7917 175.756 48.5669 176.251 48.414C176.765 48.2455 177.299 48.144 177.838 48.1121C178.363 48.0691 178.89 48.0904 179.409 48.1756V51.7498C178.902 51.6015 178.314 51.554 177.648 51.6068C176.992 51.6598 176.4 51.8452 175.87 52.1628C175.341 52.4488 174.908 52.8143 174.569 53.259C174.241 53.7039 173.998 54.2121 173.839 54.7841C173.68 55.3454 173.601 55.9542 173.601 56.6109V65.332H169.761V65.332M157.71 65.8086C155.996 65.8086 154.499 65.4219 153.218 64.6489C151.938 63.8759 150.944 62.8114 150.235 61.4559C149.536 60.0897 149.188 58.5225 149.188 56.7537C149.188 54.9535 149.547 53.3756 150.267 52.0198C150.986 50.6643 151.986 49.6053 153.266 48.8427C154.546 48.0804 156.028 47.699 157.71 47.699C159.434 47.699 160.937 48.0857 162.217 48.8587C163.497 49.6317 164.492 50.7015 165.2 52.0677C165.909 53.4231 166.264 54.9851 166.264 56.7537C166.264 58.5329 165.904 60.1056 165.185 61.4718C164.476 62.8273 163.481 63.8916 162.201 64.6649C160.921 65.4272 159.424 65.8086 157.71 65.8086V65.8086M157.71 62.2185C159.233 62.2185 160.365 61.71 161.106 60.6933C161.847 59.6767 162.217 58.3635 162.217 56.7537C162.217 55.091 161.841 53.7674 161.09 52.7824C160.339 51.7869 159.212 51.2891 157.71 51.2891C156.683 51.2891 155.837 51.5221 155.17 51.9882C154.515 52.4436 154.028 53.0843 153.71 53.9102C153.393 54.7258 153.234 55.6735 153.234 56.7537C153.234 58.4166 153.61 59.7457 154.361 60.7412C155.123 61.7259 156.239 62.2185 157.71 62.2185V62.2185M139.791 65.8086C138.024 65.8086 136.516 65.4167 135.268 64.633C134.019 63.8388 133.062 62.7586 132.395 61.3924C131.739 60.0262 131.406 58.4801 131.395 56.7537C131.406 54.9959 131.75 53.4391 132.427 52.0833C133.115 50.7174 134.088 49.6477 135.347 48.8746C136.606 48.0909 138.103 47.699 139.838 47.699C141.785 47.699 143.43 48.1915 144.774 49.1763C146.128 50.1506 147.012 51.4852 147.424 53.1795L143.615 54.2121C143.319 53.2909 142.827 52.5759 142.14 52.0677C141.452 51.5487 140.669 51.2891 139.791 51.2891C138.796 51.2891 137.976 51.5276 137.331 52.0041C136.685 52.47 136.209 53.116 135.903 53.9421C135.596 54.7682 135.442 55.7054 135.442 56.7537C135.442 58.3847 135.807 59.7033 136.537 60.7093C137.267 61.7155 138.352 62.2185 139.791 62.2185C140.806 62.2185 141.605 61.9855 142.187 61.5194C142.78 61.0536 143.224 60.3809 143.52 59.502L147.424 60.3757C146.895 62.1231 145.969 63.4681 144.647 64.4105C143.325 65.3425 141.706 65.8086 139.791 65.8086V65.8086M118.906 65.8243C117.636 65.8243 116.589 65.6125 115.764 65.189C114.939 64.7652 114.283 64.2251 113.796 63.5687C113.309 62.912 112.95 62.213 112.717 61.4718C112.484 60.7304 112.331 60.0314 112.257 59.375C112.193 58.7078 112.161 58.1677 112.161 57.7547V48.1756H116.034V56.436C116.034 56.9657 116.071 57.5641 116.145 58.2312C116.219 58.8882 116.39 59.5305 116.653 60.1373C116.919 60.7306 117.335 61.245 117.859 61.6305C118.398 62.0224 119.123 62.2185 120.033 62.2185C120.52 62.2185 121.001 62.139 121.477 61.98C121.953 61.8214 122.382 61.5513 122.763 61.1699C123.154 60.778 123.466 60.2434 123.699 59.5655C123.932 58.8877 124.048 58.0299 124.048 56.9921L126.318 57.9612C126.318 59.4225 126.032 60.7464 125.461 61.9325C124.9 63.1185 124.069 64.0665 122.969 64.776C121.869 65.475 120.514 65.8243 118.906 65.8243V65.8243M124.508 65.332V60.0102H124.048V48.1756H127.889V65.332H124.508V65.332M99.7607 65.8086C98.1844 65.8086 96.8088 65.4115 95.6346 64.617C94.46 63.8228 93.5501 62.7426 92.9046 61.3764C92.2595 60.0102 91.9366 58.4694 91.9366 56.7537C91.9366 55.017 92.2595 53.4707 92.9046 52.1152C93.5608 50.749 94.4864 49.6741 95.6821 48.8906C96.8776 48.0961 98.2847 47.699 99.9037 47.699C101.533 47.699 102.898 48.0961 103.998 48.8906C105.109 49.6741 105.95 50.749 106.522 52.1152C107.093 53.4814 107.378 55.0275 107.378 56.7537C107.378 58.4589 107.093 59.9998 106.522 61.3764C105.95 62.7426 105.098 63.8228 103.966 64.617C102.834 65.4115 101.432 65.8086 99.7607 65.8086V65.8086M100.348 62.3771C101.374 62.3771 102.199 62.1442 102.824 61.6784C103.459 61.2018 103.919 60.5399 104.204 59.6926C104.501 58.8453 104.649 57.8658 104.649 56.7537C104.649 55.6311 104.501 54.6516 104.204 53.815C103.919 52.9677 103.469 52.311 102.856 51.8452C102.242 51.3686 101.448 51.1305 100.475 51.1305C99.4485 51.1305 98.6021 51.3846 97.9358 51.8928C97.2692 52.3905 96.7772 53.0684 96.4598 53.9261C96.1422 54.7734 95.9835 55.7158 95.9835 56.7537C95.9835 57.8022 96.137 58.7554 96.4439 59.6131C96.7612 60.4604 97.2428 61.1328 97.8879 61.6305C98.5333 62.1283 99.3534 62.3771 100.348 62.3771V62.3771M104.649 65.332V53.2909H104.173V42.457H108.029V65.332H104.649V65.332M81.5873 65.8086C79.852 65.8086 78.3285 65.4327 77.0168 64.6805C75.7048 63.9287 74.6785 62.8856 73.9379 61.5513C73.2078 60.2167 72.8428 58.6811 72.8428 56.9445C72.8428 55.0698 73.2025 53.4443 73.9219 52.0677C74.6413 50.6803 75.6412 49.6053 76.9214 48.8427C78.2018 48.0804 79.6829 47.699 81.3651 47.699C83.1427 47.699 84.6502 48.1173 85.888 48.9541C87.1365 49.7799 88.0624 50.9503 88.6655 52.4648C89.2686 53.9792 89.496 55.7637 89.3478 57.8182H85.555V56.4201C85.5443 54.5564 85.2162 53.1954 84.571 52.3377C83.9256 51.4797 82.9098 51.051 81.5238 51.051C79.9579 51.051 78.7941 51.538 78.0324 52.5123C77.2706 53.4762 76.8897 54.89 76.8897 56.7537C76.8897 58.4906 77.2706 59.8356 78.0324 60.7887C78.7941 61.7419 79.9051 62.2185 81.3651 62.2185C82.3067 62.2185 83.116 62.0119 83.7933 61.5989C84.4808 61.1751 85.0099 60.5663 85.3804 59.7721L89.1575 60.9158C88.5013 62.4619 87.4858 63.6639 86.1102 64.5219C84.7454 65.3796 83.2378 65.8086 81.5873 65.8086V65.8086M75.6836 57.8182V54.9268H87.475V57.8182H75.6836V57.8182" fill="var(--fill-0, black)"/>
<g id="Clip path group">
<mask id="mask0_0_68" style="mask-type:luminance" maskUnits="userSpaceOnUse" x="22" y="35" width="40" height="40">
<path id="Vector_2" d="M22.55 35.75H61.05V74.25H22.55V35.75" fill="var(--fill-0, white)"/>
</mask>
<g mask="url(#mask0_0_68)">
<g id="Group">
<path id="Vector_3" d="M22.55 55C22.55 47.8035 22.55 44.2052 24.0974 41.525C25.1111 39.7692 26.5692 38.3111 28.325 37.2974C31.0052 35.75 34.6035 35.75 41.8 35.75C48.9965 35.75 52.5949 35.75 55.275 37.2974C57.0309 38.3111 58.4889 39.7691 59.5026 41.525C61.05 44.2052 61.05 47.8035 61.05 55C61.05 62.1965 61.05 65.7949 59.5026 68.475C58.4889 70.2309 57.0309 71.6889 55.275 72.7026C52.5949 74.25 48.9965 74.25 41.8 74.25C34.6035 74.25 31.0052 74.25 28.325 72.7026C26.5692 71.6889 25.1111 70.2308 24.0974 68.475C22.55 65.7949 22.55 62.1965 22.55 55V55" fill="var(--fill-0, #00BDAB)"/>
<path id="Vector_4" fill-rule="evenodd" clip-rule="evenodd" d="M49.5424 43.0738C50.3536 42.2983 51.6321 42.2947 52.4475 43.048L52.5247 43.1228L52.7882 43.3994C55.459 46.2718 56.4542 49.6194 56.199 52.8888C55.94 56.2042 54.4099 59.3307 52.2756 61.8013C50.1424 64.2705 47.2942 66.2151 44.2159 67.0588C41.0988 67.9132 37.6896 67.6409 34.73 65.5518C32.2201 63.7797 31.2645 60.9161 31.1996 58.1339C29.791 57.4431 28.3091 56.5846 26.7542 55.5404L26.3431 55.2615L26.2556 55.1983C25.3729 54.524 25.171 53.2755 25.8145 52.3592C26.458 51.4429 27.7112 51.1943 28.6586 51.7767L28.7499 51.8359L29.1242 52.0905C29.9889 52.6735 30.8783 53.2192 31.7897 53.7262C32.3348 51.813 33.2382 49.976 34.4286 48.4619C36.2115 46.1931 38.885 44.379 42.16 44.6498C45.1099 44.8938 47.2898 46.4156 48.4149 48.5631C49.5041 50.6426 49.5204 53.1443 48.5683 55.2956C47.5976 57.4888 45.6269 59.3159 42.7922 60.0688C40.7522 60.6106 38.3622 60.5734 35.6656 59.8477V59.8488C34.5923 59.5598 33.4672 59.161 32.2916 58.6427C32.0279 58.5263 31.7985 58.704 32.2916 59.0123C33.6801 59.9976 35.6359 60.8237 36.2018 61.1009C36.4691 61.5335 36.8008 61.8885 37.1811 62.1569C38.9307 63.3919 40.9772 63.6182 43.0895 63.0391C45.2403 62.4495 47.396 61.0277 49.0683 59.0923C50.7392 57.1582 51.8163 54.8411 51.9937 52.5674C52.1612 50.4224 51.5422 48.2185 49.6774 46.216L49.4929 46.0229L49.4194 45.9434C48.6817 45.1096 48.736 43.8415 49.5424 43.0738V43.0738M41.8088 48.8065C40.4558 48.6945 39.0277 49.4071 37.7589 51.0213C36.7925 52.2508 36.0613 53.8483 35.6884 55.492C38.3441 56.3998 40.323 56.4061 41.6983 56.0409C43.29 55.6182 44.2448 54.6609 44.704 53.6231C45.182 52.5429 45.133 51.3662 44.6696 50.4815C44.2417 49.665 43.3807 48.9365 41.8088 48.8065V48.8065" fill="var(--fill-0, white)"/>
</g>
</g>
</g>
</g>
</svg>
