<svg preserveAspectRatio="none" width="100%" height="100%" overflow="visible" style="display: block;" viewBox="0 0 220 110" fill="none" xmlns="http://www.w3.org/2000/svg">
<g id="logo-art-03.svg">
<path id="Vector" d="M90.9527 47.954V50.8329H79.7371V33.6306H90.9527V36.4735H83.5799V40.461H90.4827V43.304H83.5799V47.954H90.9527V47.954M101.65 50.8329H97.6866L92.3379 37.642H96.3856L98.9997 45.4363C99.104 45.661 99.2206 45.9822 99.349 46.3999C99.4774 46.8094 99.5577 47.1669 99.5899 47.4722H99.6622C99.7024 47.1669 99.7868 46.8177 99.9152 46.4241C100.021 46.095 100.137 45.7694 100.264 45.4482L102.951 37.642H106.974L101.65 50.8329V50.8329M121.503 44.2074C121.503 46.4079 120.904 48.1025 119.708 49.291C118.511 50.4796 116.881 51.0741 114.817 51.0741C113.54 51.0741 112.404 50.809 111.408 50.2788C110.412 49.7409 109.625 48.9618 109.047 47.9419C108.476 46.9139 108.191 45.669 108.191 44.2074C108.191 42.023 108.785 40.3444 109.974 39.1721C111.171 37.9915 112.809 37.4011 114.889 37.4011C116.174 37.4011 117.314 37.6662 118.31 38.1961C119.306 38.7263 120.085 39.4972 120.647 40.5092C121.218 41.5212 121.503 42.7537 121.503 44.2074V44.2074M112.13 44.2074C112.13 45.4765 112.343 46.4602 112.769 47.1589C113.194 47.8574 113.893 48.207 114.865 48.207C115.821 48.207 116.511 47.8574 116.937 47.1589C117.363 46.4602 117.575 45.4765 117.575 44.2074C117.575 42.9385 117.363 41.9667 116.937 41.2921C116.511 40.6175 115.813 40.2804 114.841 40.2804C113.893 40.2804 113.203 40.6175 112.769 41.2921C112.343 41.9667 112.13 42.9385 112.13 44.2074V44.2074M128.682 32.5223V50.8329H124.827V32.5223H128.682V32.5223M141.211 37.642H145.066V50.8329H142.114L141.62 49.1466H141.404C140.986 49.8212 140.412 50.311 139.681 50.6162C138.95 50.9215 138.171 51.0741 137.344 51.0741C135.947 51.0741 134.814 50.6924 133.947 49.9296C133.079 49.1585 132.646 47.9298 132.646 46.2432V37.642H136.525V45.2675C136.525 46.1912 136.681 46.8897 136.995 47.3635C137.308 47.8294 137.81 48.0623 138.5 48.0623C139.552 48.0623 140.267 47.693 140.645 46.9541C141.022 46.2151 141.211 45.155 141.211 43.7737V37.642V37.642M154.197 48.0623C154.55 48.0623 154.876 48.0263 155.173 47.954C155.481 47.8726 155.787 47.7802 156.088 47.6768V50.4477C155.651 50.6308 155.2 50.7797 154.739 50.8932C154.265 51.0139 153.663 51.0741 152.932 51.0741C152.193 51.0741 151.539 50.9454 150.968 50.6886C150.398 50.4314 149.953 49.9818 149.631 49.3394C149.318 48.6967 149.161 47.8013 149.161 46.6529V40.485H147.728V38.8949L149.523 37.6541L150.523 34.8714H153.041V37.642H155.932V40.485H153.041V46.4241C153.041 47.5162 153.426 48.0623 154.197 48.0623V48.0623M161.027 32.45C161.614 32.45 162.123 32.5784 162.557 32.8356C162.991 33.0844 163.208 33.5583 163.208 34.257C163.208 34.9396 162.991 35.4134 162.557 35.6785C162.123 35.9354 161.614 36.0641 161.027 36.0641C160.417 36.0641 159.899 35.9354 159.473 35.6785C159.048 35.4134 158.835 34.9396 158.835 34.257C158.835 33.5583 159.048 33.0844 159.473 32.8356C159.899 32.5784 160.417 32.45 161.027 32.45V32.45M159.076 37.642H162.931V50.8329H159.076V37.642V37.642M179.519 44.2074C179.519 46.4079 178.921 48.1025 177.724 49.291C176.527 50.4796 174.897 51.0741 172.833 51.0741C171.556 51.0741 170.42 50.809 169.424 50.2788C168.428 49.7409 167.641 48.9618 167.063 47.9419C166.492 46.9139 166.207 45.669 166.207 44.2074C166.207 42.023 166.802 40.3444 167.99 39.1721C169.187 37.9915 170.825 37.4011 172.905 37.4011C174.19 37.4011 175.331 37.6662 176.326 38.1961C177.322 38.7263 178.101 39.4972 178.664 40.5092C179.234 41.5212 179.519 42.7537 179.519 44.2074V44.2074M170.147 44.2074C170.147 45.4765 170.359 46.4602 170.785 47.1589C171.211 47.8574 171.909 48.207 172.881 48.207C173.837 48.207 174.528 47.8574 174.953 47.1589C175.379 46.4602 175.592 45.4765 175.592 44.2074C175.592 42.9385 175.379 41.9667 174.953 41.2921C174.528 40.6175 173.829 40.2804 172.857 40.2804C171.909 40.2804 171.219 40.6175 170.785 41.2921C170.359 41.9667 170.147 42.9385 170.147 44.2074V44.2074M190.409 37.4011C191.847 37.4011 192.991 37.7867 193.842 38.5575C194.693 39.3206 195.119 40.5493 195.119 42.2439V50.8329H191.288V43.2196C191.288 42.2881 191.124 41.5852 190.794 41.1114C190.473 40.6376 189.955 40.4008 189.24 40.4008C188.188 40.4008 187.47 40.7743 187.084 41.5212C186.707 42.2598 186.518 43.3241 186.518 44.7134V50.8329H182.663V37.642H185.614L186.144 39.4009H186.301C187.177 38.0677 188.546 37.4011 190.409 37.4011V37.4011" fill="var(--fill-0, #1D3AA7)"/>
<path id="Vector_2" d="M93.0925 74.0242H91.3289L89.3629 69.7645H83.1564L81.2193 74.0242H79.4943L85.6141 60.2044H87.0114L93.0925 74.0242V74.0242M88.8135 68.2226L86.9825 64.0593C86.944 63.9565 86.8764 63.77 86.7801 63.5003C86.6902 63.2305 86.597 62.9541 86.5007 62.6714C86.4255 62.447 86.3516 62.2221 86.2791 61.9968C86.1712 62.3836 86.0588 62.7691 85.9416 63.1532C85.8261 63.5324 85.7233 63.8344 85.6334 64.0593L83.7829 68.2226H88.8135V68.2226M99.4821 74.217C98.4734 74.217 97.5772 74.0306 96.7931 73.6579C96.0157 73.279 95.4022 72.7007 94.9526 71.9232C94.5093 71.1395 94.2876 70.1371 94.2876 68.9164C94.2876 67.6442 94.5189 66.61 94.9814 65.8133C95.444 65.0166 96.0737 64.432 96.8704 64.0593C97.6734 63.6867 98.5826 63.5003 99.5976 63.5003C100.163 63.5003 100.712 63.555 101.246 63.6642C101.785 63.7733 102.216 63.9051 102.537 64.0593L102.016 65.4662C101.689 65.3507 101.294 65.2413 100.831 65.1387C100.369 65.0359 99.9413 64.9844 99.5495 64.9844C98.3609 64.9844 97.4806 65.3153 96.9089 65.9769C96.3369 66.6322 96.0512 67.6057 96.0512 68.8971C96.0512 70.1371 96.3339 71.0911 96.8993 71.7593C97.4647 72.4213 98.3095 72.7521 99.4337 72.7521C100.057 72.7521 100.603 72.6941 101.072 72.5786C101.548 72.4565 101.978 72.3151 102.364 72.1545V73.6579C101.991 73.8378 101.576 73.9758 101.12 74.0724C100.671 74.1686 100.124 74.217 99.4821 74.217V74.217M108.801 63.5195C110.028 63.5195 110.937 63.7959 111.528 64.3484C112.126 64.9008 112.425 65.7811 112.425 66.9889V74.0242H111.201L110.873 72.5593H110.796C110.353 73.1247 109.887 73.5422 109.399 73.8122C108.917 74.082 108.252 74.217 107.404 74.217C106.492 74.217 105.73 73.9695 105.12 73.4748C104.516 72.9737 104.214 72.1996 104.214 71.1521C104.214 70.1179 104.609 69.3245 105.399 68.7717C106.19 68.2193 107.407 67.914 109.052 67.8563L110.767 67.7985V67.1817C110.767 66.3207 110.584 65.7234 110.218 65.3892C109.858 65.0551 109.35 64.8879 108.695 64.8879C108.184 64.8853 107.676 64.9668 107.192 65.1291C106.734 65.2825 106.286 65.4659 105.852 65.6783L105.332 64.4061C105.775 64.1619 106.299 63.9532 106.903 63.7797C107.507 63.6061 108.139 63.5195 108.801 63.5195V63.5195M110.748 68.9741L109.273 69.0322C108.027 69.077 107.163 69.2827 106.681 69.6487C106.206 70.0087 105.968 70.5161 105.968 71.1714C105.968 71.7497 106.138 72.1738 106.479 72.4435C106.819 72.7136 107.259 72.8483 107.799 72.8483C108.641 72.8483 109.341 72.6074 109.9 72.1256C110.465 71.6438 110.748 70.9016 110.748 69.8995V68.9741V68.9741M119.73 74.217C118.394 74.217 117.324 73.7704 116.521 72.8772C115.718 71.9843 115.316 70.6511 115.316 68.8779C115.316 67.1047 115.721 65.7649 116.53 64.859C117.34 63.9532 118.413 63.5003 119.749 63.5003C120.578 63.5003 121.256 63.6479 121.783 63.9436C122.316 64.2392 122.746 64.5989 123.074 65.0229H123.199C123.18 64.856 123.154 64.6085 123.122 64.281C123.096 63.9532 123.084 63.693 123.084 63.5003V59.3755H124.77V74.0242H123.402L123.161 72.6363H123.084C122.762 73.0796 122.332 73.4555 121.792 73.7638C121.259 74.0658 120.572 74.217 119.73 74.217V74.217M119.971 72.8098C121.121 72.8098 121.927 72.5112 122.39 71.9136C122.859 71.3097 123.093 70.4069 123.093 69.2054V68.8971C123.093 67.6121 122.872 66.6259 122.428 65.9384Cnan nan 121.159 64.9072 119.951 64.9072C118.988 64.9072 118.268 65.2702 117.793 65.9964C117.317 66.7158 117.08 67.6893 117.08 68.9164C117.08 70.15 117.317 71.1073 117.793 71.7882C118.275 72.4694 119.001 72.8098 119.971 72.8098V72.8098M132.277 63.5003C133.588 63.5003 134.619 63.9276 135.371 64.782C136.123 65.6301 136.499 66.7576 136.499 68.1648V69.1862H129.502C129.534 70.3491 129.83 71.239 130.389 71.8559C130.954 72.4661 131.744 72.7713 132.759 72.7713C133.408 72.7713 133.983 72.7103 134.484 72.5882C134.992 72.4661 135.512 72.2895 136.046 72.0583V73.5422C135.519 73.7734 135.002 73.9439 134.494 74.0531C133.987 74.1623 133.383 74.217 132.682 74.217C131.712 74.217 130.854 74.0176 130.109 73.6194C129.37 73.2146 128.792 72.6204 128.374 71.8366C127.957 71.0526 127.748 70.0857 127.748 68.9356C127.748 67.8048 127.937 66.8346 128.317 66.0253C128.696 65.2094 129.226 64.586 129.907 64.1556C130.588 63.7186 131.378 63.5003 132.277 63.5003V63.5003M132.258 64.8879C131.462 64.8879 130.832 65.1483 130.369 65.6686C129.907 66.1889 129.631 66.9119 129.541 67.837H134.735C134.729 66.9567 134.526 66.247 134.128 65.7071C133.729 65.161 133.106 64.8879 132.258 64.8879V64.8879M150.791 63.5003C151.966 63.5003 152.843 63.8022 153.422 64.4061C154.006 65.0037 154.299 65.9673 154.299 67.2975V74.0242H152.631V67.3745C152.631 65.7426 151.925 64.9267 150.511 64.9267C149.502 64.9267 148.78 65.219 148.343 65.8037C147.906 66.3817 147.687 67.2202 147.687 68.3188V74.0242H146.011V67.3745C146.011 65.7426 145.297 64.9267 143.871 64.9267C142.824 64.9267 142.098 65.2479 141.693 65.8903C141.288 66.5327 141.086 67.4581 141.086 68.6659V74.0242H139.39V63.693H140.768L141.019 65.0999H141.115C141.436 64.5604 141.87 64.1589 142.416 63.8954C142.966 63.6324 143.569 63.4973 144.179 63.5003C145.805 63.5003 146.865 64.0786 147.36 65.235H147.456C147.803 64.644 148.275 64.207 148.873 63.9243Cnan nan 150.11 63.5003 150.791 63.5003V63.5003M160.447 74.0627L156.043 63.693H157.855L160.245 69.5717C160.451 70.061 160.644 70.5559 160.823 71.0559C160.982 71.489 161.108 71.9336 161.199 72.3858H161.276C161.366 72.0646 161.501 71.6438 161.681 71.1233C161.863 70.5969 162.052 70.0733 162.249 69.5525L164.485 63.693H166.326L161.604 75.4504C161.225 76.4206 160.736 77.1947 160.139 77.773C159.548 78.3577 158.732 78.65 157.691 78.65C157.37 78.65 157.084 78.6341 156.833 78.6019C156.623 78.5755 156.414 78.54 156.207 78.4957V77.1466C156.355 77.1724 156.531 77.198 156.737 77.2236C156.949 77.2494 157.174 77.2624 157.411 77.2624C158.035 77.2624 158.539 77.0952 158.924 76.761C159.31 76.4335 159.619 75.9902 159.85 75.4311L160.447 74.0627V74.0627" fill="var(--fill-0, #777F9D)"/>
<path id="Vector_3" fill-rule="evenodd" clip-rule="evenodd" d="M59.0598 37.3871V34.9374H65.0004V57.5096C65.0004 67.2699 56.6057 75.1825 46.2503 75.1825C36.3316 75.1825 28.2117 67.9233 27.5443 58.7345H27.5V34.9374H33.4406V37.3871H43.4654V34.9374H49.4062V37.3871H59.0598V37.3871M59.0598 57.5096V54.0741C58.382 54.7315 57.6658 55.3482 56.9151 55.921C54.406 57.8383 51.4585 59.3362 48.2526 60.351C45.0464 61.366 41.6251 61.8841 38.1802 61.8841H34.3074C36.1664 66.3897 40.8125 69.583 46.2503 69.583C53.3247 69.583 59.0598 64.1776 59.0598 57.5096V57.5096M44.0289 53.2925C42.8954 54.4248 41.6198 55.4053 40.2341 56.2094C42.3442 56.0541 44.4103 55.6606 46.3614 55.0429C48.9426 54.2259 51.2537 53.039 53.174 51.5716C55.0932 50.1047 56.5747 48.395 57.5693 46.5597C58.1974 45.4008 58.6273 44.201 58.8583 42.9863H49.2148C48.9967 44.4803 48.5938 45.9414 48.0153 47.336C47.0908 49.5642 45.7362 51.5883 44.0289 53.2925V53.2925M33.4406 52.861V42.9863H43.1948C43.0302 43.7775 42.7916 44.5515 42.4823 45.298C41.8391 46.8508 40.8963 48.2618 39.7078 49.4502C38.5363 50.6217 37.1457 51.5511 35.6153 52.1854C34.9124 52.4763 34.1845 52.7024 33.4406 52.861V52.861" fill="var(--fill-0, #1D3AA7)"/>
</g>
</svg>
