<svg preserveAspectRatio="none" width="100%" height="100%" overflow="visible" style="display: block;" viewBox="0 0 220 110" fill="none" xmlns="http://www.w3.org/2000/svg">
<g id="logo-art-06.svg">
<path id="Vector" fill-rule="evenodd" clip-rule="evenodd" d="M23.1 49.7714V65.6076H28.1108C28.6371 65.6076 29.1583 65.7099 29.6447 65.909C30.1302 66.1073 30.572 66.3989 30.9452 66.7673C31.3168 67.1338 31.6121 67.5703 31.8142 68.0515C32.0155 68.5312 32.1192 69.0462 32.1195 69.5665V74.5154H44.1452L59.1773 59.6689V43.8328H54.1665C53.6401 43.8328 53.119 43.7305 52.6325 43.5314C52.1472 43.333 51.7054 43.0415 51.3321 42.6734C50.9606 42.3067 50.6652 41.8701 50.4631 41.3889C50.2619 40.9091 50.1582 40.3941 50.1581 39.8739V34.925H38.1323L23.1 49.7714V49.7714M40.1365 64.6178H33.1216V53.7303L42.1407 44.8225H49.1557V55.7101L40.1365 64.6178V64.6178" fill="var(--fill-0, #4649F4)"/>
<path id="Vector_2" d="M185.318 54.175V41.7175H178.679V37.9775H197.451V41.7175H190.729V54.175H185.318V54.175M171.105 54.175V38.005H176.46V54.175H171.105V54.175M144.403 54.175V40.205L144.124 38.005H150.874L155.783 47.63L160.804 38.005H167.191V54.175H161.864V44.9075H161.557L160.385 47.8775L158.349 52.525H153.273L151.153 47.8775L150.009 44.9075H149.731V54.175H144.403V54.175M117.423 54.175V40.205L117.144 38.005H123.894L128.803 47.63L133.823 38.005H140.211V54.175H134.883V44.9075H134.576L133.405 47.8775L131.369 52.525H126.292L124.172 47.8775L123.029 44.9075H122.75V54.175H117.423V54.175M100.473 54.45C98.6136 54.45 97.2004 54.0191 96.2335 53.1575C95.285 52.2957 94.8109 50.9025 94.8109 48.9775V38.005H100.25V48.4825C100.25 49.3441 100.464 49.9216 100.891 50.215C101.319 50.5082 101.849 50.655 102.481 50.655H106.08C106.675 50.655 107.195 50.5082 107.642 50.215C108.088 49.9032 108.311 49.3257 108.311 48.4825V38.005H113.666V48.9775C113.666 50.9025 113.192 52.2957 112.244 53.1575C111.314 54.0191 109.91 54.45 108.032 54.45H100.473V54.45M76.7393 54.175C75.4748 54.175 74.5451 54.12 73.9502 54.01C73.3551 53.9 73.0576 53.7716 73.0576 53.625L74.7312 50.0775C75.1589 50.1507 76.0422 50.2241 77.3809 50.2975C78.7198 50.3525 80.4584 50.38 82.5968 50.38H84.8004C85.4513 50.38 85.8883 50.2882 86.1113 50.105C86.3343 49.9216 86.446 49.6557 86.446 49.3075V49.0325C86.446 48.5925 86.3343 48.29 86.1113 48.125C85.8883 47.96 85.4513 47.8775 84.8004 47.8775H78.4129C76.535 47.8775 75.1682 47.5382 74.3127 46.86C73.4574 46.1632 73.0295 45.0357 73.0295 43.4775V42.4875C73.0295 41.6807 73.1783 40.9382 73.4759 40.26C73.7921 39.5816 74.322 39.0407 75.0659 38.6375C75.8095 38.2157 76.8322 38.005 78.1341 38.005H87.3944C88.5285 38.005 89.4677 38.0691 90.2115 38.1975C90.9738 38.3257 91.355 38.4632 91.355 38.61L90.5184 42.02C89.9976 41.965 89.012 41.91 87.5616 41.855C86.13 41.7816 84.3076 41.745 82.0946 41.745L80.0866 41.7175C79.5102 41.7175 79.101 41.8 78.8593 41.965C78.6175 42.1116 78.4872 42.3957 78.4688 42.8175V43.01C78.4688 43.4316 78.5988 43.725 78.8593 43.89C79.1197 44.055 79.538 44.1375 80.1144 44.1375H86.2507C87.4409 44.1375 88.4543 44.2566 89.2911 44.495C90.1279 44.7332 90.7692 45.1732 91.2156 45.815C91.6619 46.4382 91.8852 47.3641 91.8852 48.5925V49.5825C91.8852 50.9575 91.5225 52.0666 90.7973 52.91C90.0905 53.7532 88.8541 54.175 87.0875 54.175H76.7393V54.175" fill="var(--fill-0, black)"/>
<path id="Vector_3" d="M148.833 71.775C148.036 71.775 147.471 71.7338 147.137 71.6518C146.804 71.5696 146.637 71.4874 146.637 71.4054L147.173 70.0854C147.518 70.1206 148.149 70.1616 149.065 70.2086C149.994 70.2438 151.136 70.2614 152.493 70.2614H153.385C153.683 70.2614 153.867 70.185 153.939 70.0326C154.022 69.8682 154.064 69.6512 154.064 69.3814C154.064 69.1114 154.016 68.8944 153.921 68.7302C153.837 68.5658 153.659 68.4838 153.385 68.4838H148.994C148.161 68.4838 147.56 68.3312 147.191 68.0262C146.822 67.7094 146.637 67.24 146.637 66.6182V65.9142C146.637 65.7498 146.655 65.5562 146.691 65.3334C146.727 65.1104 146.816 64.8874 146.959 64.6646C147.102 64.4416 147.334 64.2598 147.655 64.119C147.976 63.9664 148.423 63.8902 148.994 63.8902H153.921C154.635 63.8902 155.141 63.9312 155.438 64.0134C155.736 64.0954 155.885 64.1776 155.885 64.2598L155.706 65.5798C155.361 65.5446 154.724 65.5094 153.796 65.4742C152.868 65.4272 151.731 65.4038 150.386 65.4038H149.494C149.196 65.4038 149.006 65.4858 148.922 65.6502C148.851 65.8026 148.815 65.9846 148.815 66.1958C148.815 66.4186 148.851 66.6064 148.922 66.759C149.006 66.8998 149.196 66.9702 149.494 66.9702H153.885C154.694 66.9702 155.289 67.1344 155.67 67.463C156.051 67.7914 156.242 68.208 156.242 68.7126V69.751C156.242 69.9622 156.224 70.185 156.188 70.4198C156.164 70.6544 156.081 70.8774 155.938 71.0886C155.795 71.288 155.563 71.4521 155.242 71.5814C154.92 71.7104 154.468 71.775 153.885 71.775H148.833V71.775M129.624 71.775V63.8902H131.088L131.534 64.1014C131.879 64.0426 132.301 63.9958 132.801 63.9606C133.301 63.9136 133.896 63.8902 134.586 63.8902H135.479C135.824 63.8902 136.157 63.937 136.479 64.031C136.8 64.113 137.038 64.2362 137.193 64.4006C137.502 64.248 137.931 64.1248 138.478 64.031C139.025 63.937 139.74 63.8902 140.62 63.8902H141.513C142.108 63.8902 142.566 63.9722 142.887 64.1366C143.208 64.3008 143.435 64.5062 143.566 64.7526C143.708 64.999 143.792 65.2512 143.815 65.5094C143.851 65.7558 143.869 65.967 143.869 66.143V71.775H141.691V66.1078C141.691 65.6384 141.406 65.4038 140.834 65.4038H138.335C138.145 65.4038 138.014 65.4272 137.942 65.4742C137.871 65.521 137.835 65.6266 137.835 65.791V71.775H135.657V66.1078C135.657 65.6384 135.372 65.4038 134.801 65.4038H132.337C132.111 65.4038 131.962 65.4272 131.891 65.4742C131.831 65.5094 131.802 65.615 131.802 65.791V71.775H129.624V71.775M119.839 71.775C119.244 71.775 118.786 71.6986 118.465 71.5462C118.143 71.3936 117.911 71.2 117.768 70.9654C117.64 70.7368 117.555 70.4861 117.518 70.2262C117.496 69.9922 117.484 69.7573 117.483 69.5222V66.143C117.483 65.967 117.495 65.7558 117.518 65.5094C117.554 65.2512 117.638 64.999 117.768 64.7526C117.911 64.5062 118.143 64.3008 118.465 64.1366C118.798 63.9722 119.256 63.8902 119.839 63.8902H123.677C124.463 63.8902 125.075 63.9664 125.516 64.119C125.968 64.2598 126.284 64.4944 126.462 64.823C126.652 65.1514 126.747 65.5914 126.747 66.143V68.7478H123.624C122.553 68.7478 121.678 68.7242 120.999 68.6774C120.553 68.6446 120.107 68.6153 119.661 68.5894V69.5574C119.649 70.0266 119.934 70.2614 120.518 70.2614H121.428C122.071 70.2614 122.695 70.2554 123.302 70.2438C123.921 70.2202 124.486 70.1968 124.998 70.1734C125.51 70.1382 125.921 70.1088 126.23 70.0854L126.944 71.2294C126.944 71.593 125.772 71.775 123.427 71.775H119.839V71.775M119.661 67.2342H124.57V66.1078C124.57 65.873 124.54 65.7088 124.48 65.615C124.433 65.521 124.278 65.4624 124.016 65.439C123.755 65.4154 123.308 65.4038 122.677 65.4038H120.518C119.946 65.4038 119.661 65.6384 119.661 66.1078V67.2342V67.2342M111.803 71.775C110.899 71.775 110.28 71.5872 109.947 71.2118C109.614 70.8362 109.447 70.273 109.447 69.5222V65.4038H107.983V63.8902H108.733C108.959 63.8902 109.12 63.855 109.215 63.7846C109.322 63.7142 109.399 63.5734 109.447 63.3622L109.804 61.479H111.625V63.8902H115.338V65.4038H111.625V69.5398C111.625 69.833 111.696 70.0266 111.839 70.1206C111.982 70.2144 112.196 70.2614 112.482 70.2614H114.999L115.177 71.599C114.927 71.6342 114.547 71.6752 114.035 71.7222C113.476 71.7589 112.917 71.7765 112.357 71.775H111.803V71.775M98.4384 71.775C97.6409 71.775 97.0755 71.7338 96.7425 71.6518C96.4092 71.5696 96.2426 71.4874 96.2426 71.4054L96.7783 70.0854C97.1234 70.1206 97.754 70.1616 98.6703 70.2086C99.5987 70.2438 100.741 70.2614 102.098 70.2614H102.991C103.288 70.2614 103.472 70.185 103.544 70.0326C103.627 69.8682 103.669 69.6512 103.669 69.3814C103.669 69.1114 103.621 68.8944 103.526 68.7302C103.443 68.5658 103.264 68.4838 102.991 68.4838H98.599C97.7658 68.4838 97.1649 68.3312 96.7959 68.0262C96.4271 67.7094 96.2426 67.24 96.2426 66.6182V65.9142C96.2426 65.7498 96.2604 65.5562 96.2962 65.3334C96.3319 65.1104 96.421 64.8874 96.564 64.6646C96.7068 64.4416 96.9389 64.2598 97.2601 64.119C97.5815 63.9664 98.0279 63.8902 98.599 63.8902H103.526C104.24 63.8902 104.746 63.9312 105.043 64.0134C105.341 64.0954 105.489 64.1776 105.489 64.2598L105.311 65.5798C104.966 65.5446 104.329 65.5094 103.401 65.4742C102.473 65.4272 101.336 65.4038 99.9914 65.4038H99.0987C98.8012 65.4038 98.6109 65.4858 98.5275 65.6502C98.456 65.8026 98.4206 65.9846 98.4206 66.1958C98.4206 66.4186 98.456 66.6064 98.5275 66.759C98.6109 66.8998 98.8012 66.9702 99.0987 66.9702H103.49C104.3 66.9702 104.895 67.1344 105.275 67.463C105.656 67.7914 105.847 68.208 105.847 68.7126V69.751C105.847 69.9622 105.829 70.185 105.793 70.4198C105.769 70.6544 105.686 70.8774 105.543 71.0886C105.4 71.288 105.168 71.4521 104.847 71.5814C104.526 71.7104 104.073 71.775 103.49 71.775H98.4384V71.775M85.7315 75.2246C85.1601 75.2246 84.6365 75.16 84.1604 75.031C83.6844 74.9018 83.3632 74.7846 83.1966 74.679L83.732 73.095C83.9344 73.177 84.2201 73.271 84.5889 73.3766C84.9698 73.4938 85.3982 73.5526 85.8742 73.5526H86.0706C86.6181 73.5526 87.0999 73.3882 87.5165 73.0598C87.945 72.743 88.2722 72.3146 88.4983 71.775H87.6059L84.1071 63.8902H86.606L88.6592 68.7478L89.1231 70.015H89.3016L89.7658 68.7478L91.8544 63.8902H94.2821L93.9966 64.9638C93.7703 65.4214 93.5085 65.9494 93.2112 66.5478C92.914 67.1581 92.6164 67.7682 92.3186 68.3782C92.0197 68.9906 91.7162 69.6008 91.4081 70.2086C91.1538 70.7315 90.8979 71.2536 90.6405 71.775C90.2954 72.479 89.9145 73.089 89.4979 73.6054C89.0934 74.1216 88.6234 74.5206 88.0877 74.8022C87.5641 75.0838 86.9393 75.2246 86.2133 75.2246H85.7315V75.2246M74.7227 71.775C73.9252 71.775 73.3601 71.7338 73.0268 71.6518C72.6935 71.5696 72.5268 71.4874 72.5268 71.4054L73.0625 70.0854C73.4077 70.1206 74.0382 70.1616 74.9548 70.2086C75.8829 70.2438 77.0256 70.2614 78.3821 70.2614H79.2748C79.5723 70.2614 79.7566 70.185 79.8281 70.0326C79.9114 69.8682 79.9529 69.6512 79.9529 69.3814C79.9529 69.1114 79.9054 68.8944 79.8102 68.7302C79.7269 68.5658 79.5484 68.4838 79.2748 68.4838H74.8833C74.0503 68.4838 73.4492 68.3312 73.0804 68.0262C72.7114 67.7094 72.5268 67.24 72.5268 66.6182V65.9142C72.5268 65.7498 72.5447 65.5562 72.5805 65.3334C72.6162 65.1104 72.7056 64.8874 72.8483 64.6646C72.991 64.4416 73.2231 64.2598 73.5443 64.119C73.8658 63.9664 74.3121 63.8902 74.8833 63.8902H79.8102C80.5244 63.8902 81.0301 63.9312 81.3277 64.0134C81.6252 64.0954 81.774 64.1776 81.774 64.2598L81.5955 65.5798C81.2504 65.5446 80.6135 65.5094 79.6854 65.4742C78.757 65.4272 77.6204 65.4038 76.2756 65.4038H75.3833C75.0857 65.4038 74.8951 65.4858 74.8118 65.6502C74.7406 65.8026 74.7048 65.9846 74.7048 66.1958C74.7048 66.4186 74.7406 66.6064 74.8118 66.759C74.8951 66.8998 75.0857 66.9702 75.3833 66.9702H79.7745C80.5838 66.9702 81.1789 67.1344 81.5598 67.463C81.9404 67.7914 82.1309 68.208 82.1309 68.7126V69.751C82.1309 69.9622 82.1131 70.185 82.0773 70.4198C82.0537 70.6544 81.9703 70.8774 81.8273 71.0886C81.6846 71.288 81.4525 71.4521 81.1313 71.5814C80.8098 71.7104 80.3577 71.775 79.7745 71.775H74.7227V71.775" fill="var(--fill-0, #4649F4)"/>
</g>
</svg>
