<svg preserveAspectRatio="none" width="100%" height="100%" overflow="visible" style="display: block;" viewBox="0 0 220 110" fill="none" xmlns="http://www.w3.org/2000/svg">
<g id="logo-art-04.svg">
<path id="Vector" fill-rule="evenodd" clip-rule="evenodd" d="M26.675 37.5875C26.675 35.9851 27.9824 34.686 29.595 34.686H34.6816C35.8283 34.6856 36.94 35.0806 37.8293 35.8044L39.3767 37.0653L39.4155 37.1005C39.4512 37.0884 39.487 37.0769 39.5227 37.0653C42.3145 36.1768 45.7017 36.0079 49.1587 36.0079C52.6158 36.0079 56.0029 36.1768 58.7945 37.0653C58.8305 37.0769 58.866 37.0884 58.9017 37.1005L58.9405 37.0653L60.4879 35.8044C61.3772 35.0806 62.4889 34.6856 63.6356 34.686H68.7222C70.3351 34.686 71.6422 35.9851 71.6422 37.5875V39.3814C71.6422 40.769 71.054 42.0926 70.0216 43.0273L68.7734 44.1576C68.1631 44.71 67.4317 45.1115 66.638 45.3299L66.3427 45.4113C67.4993 48.1541 68.1384 51.0856 68.1384 53.4572C68.1384 62.9973 62.1981 67.1176 56.9643 70.7479C52.8424 73.6071 49.1587 76.1621 49.1587 80.8214C49.1587 76.1621 45.4748 73.6071 41.3531 70.7479C36.1191 67.1176 30.1788 62.9973 30.1788 53.4572C30.1788 51.0856 30.8179 48.1541 31.9745 45.4113L31.6795 45.3299C30.8858 45.1115 30.1544 44.71 29.5441 44.1576L28.2956 43.0273C27.2646 42.0955 26.6759 40.7711 26.675 39.3814V37.5875V37.5875M52.9546 61.2568C52.9546 61.7125 52.7546 62.1494 52.3988 62.472C52.0427 62.794 51.56 62.9753 51.0565 62.9753C50.622 62.9753 50.2026 62.8403 49.8671 62.5958C50.4383 64.1149 51.8997 65.5542 54.1225 63.2395C56.0849 61.0888 54.0353 56.5526 52.0385 53.8609C51.373 52.9639 50.2805 52.5319 49.1587 52.5319Cnan nan 46.9442 52.9639 46.2787 53.8609C44.2819 56.5526 42.2323 61.0888 44.1947 63.2395C46.4175 65.5542 47.8789 64.1149 48.4501 62.5958C48.1146 62.8403 47.6952 62.9753 47.2607 62.9753C46.7572 62.9753 46.2745 62.794 45.9187 62.472C45.5626 62.1494 45.3626 61.7125 45.3626 61.2568H52.9546V61.2568M41.8905 47.8288H36.6028L40.7699 51.1445C41.687 51.8741 43.0273 51.6409 43.5947 50.6531C44.311 49.4057 43.3595 47.8288 41.8905 47.8288V47.8288M56.427 47.8288H61.7144L57.5473 51.1445C56.6305 51.8741 55.2901 51.6409 54.7228 50.6531C54.0062 49.4057 54.9579 47.8288 56.427 47.8288V47.8288" fill="var(--fill-0, #66A500)"/>
<path id="Vector_2" d="M185.397 35.0015H191.675L185.598 46.6282V53.0819H179.571V46.5781L173.519 35.0015H180.299L182.911 41.2544L185.397 35.0015V35.0015M176.359 53.0819H163.075V35.0015H169.102V48.0596H176.359V53.0819V53.0819M160.786 39.0195L153.679 48.4113H161.162V53.0819H145.945V49.0641L153.051 39.6723H146.346V35.0015H160.786V39.0195V39.0195M144.208 39.0195L137.102 48.4113H144.585V53.0819H129.367V49.0641L136.474 39.6723H129.769V35.0015H144.208V39.0195V39.0195M127.609 53.0819H121.582V35.0015H127.609V53.0819V53.0819M116.66 45.3978L120.426 53.0819H113.897L111.612 48.1852C111.135 47.1306 110.633 46.6785 110.005 46.6535H109.754V53.0819H103.803V35.0015H111.964C117.036 35.0015 119.096 37.0607 119.096 40.4005C119.096 42.6605 118.217 44.0919 116.183 44.795C116.384 44.9207 116.534 45.1215 116.66 45.3978V45.3978M111.512 39.3962H109.754V42.8615H111.512C112.818 42.8615 113.169 42.1834 113.169 41.1791C113.169 40.0991 112.818 39.3962 111.512 39.3962V39.3962M92.3203 46.9799V42.8865H101.687V53.0819H97.4933V50.9473C96.4387 52.5547 94.8062 53.4336 92.4206 53.4336C87.2479 53.4336 83.5313 49.9681 83.5313 44.0418C83.5313 38.2913 87.0218 34.65 92.7974 34.65C97.5436 34.65 100.934 36.9603 101.662 41.7315H95.5347C95.2584 40.6769 94.6055 39.6473 92.923 39.6473C90.6128 39.6473 89.6585 41.4051 89.6585 44.1672C89.6585 46.8793 90.5624 48.7124 93.0234 48.7124C94.7309 48.7124 95.6601 47.9842 96.0869 46.9799H92.3203V46.9799M185.297 74.4681C183.228 74.4681 182.194 73.5845 182.194 71.8176H183.737C183.76 72.8577 184.341 73.3777 185.482 73.3777C186.008 73.3777 186.444 73.2548 186.79 73.0087C187.204 72.7403 187.411 72.3712 187.411 71.9015C187.411 71.3424 186.975 70.9566 186.102 70.744C184.57 70.3527 183.771 70.1456 183.704 70.1234C182.831 69.6985 182.395 68.9772 182.395 67.9594C182.395 67.3219 182.619 66.7964 183.066 66.3825C183.625 65.8906 184.453 65.6444 185.549 65.6444C186.555 65.6444 187.305 65.8009 187.797 66.1141C188.412 66.4945 188.719 67.1597 188.719 68.1104H187.176C187.176 67.1822 186.622 66.718 185.515 66.718C185.079 66.718 184.705 66.8355 184.391 67.0703C184.089 67.2939 183.938 67.5903 183.938 67.9594C183.938 68.5297 184.375 68.9323 185.247 69.1672C185.638 69.2791 186.035 69.3853 186.438 69.4859L187.646 69.7879C188.518 70.1682 188.954 70.8334 188.954 71.7841C188.954 72.7235 188.568 73.428 187.797 73.8977C187.171 74.2781 186.337 74.4681 185.297 74.4681V74.4681M175.881 74.4681C174.874 74.4681 173.985 74.0655 173.213 73.2603C172.397 72.4328 171.989 71.4205 171.989 70.224C171.989 69.0049 172.246 67.9874 172.761 67.171C173.376 66.1532 174.276 65.6444 175.461 65.6444C176.859 65.6444 177.832 66.0806 178.38 66.9529V62.1385H179.89V74.25H178.38V73.2938C177.631 74.0768 176.798 74.4681 175.881 74.4681V74.4681M175.948 73.2603C176.719 73.2603 177.329 72.9193 177.776 72.237C178.145 71.6444 178.33 70.9398 178.33 70.1234C178.33 69.4972 178.218 68.9211 177.994 68.3955C177.771 67.87 177.463 67.4506 177.072 67.1374C176.68 66.8132 176.238 66.6509 175.746 66.6509C174.997 66.6509 174.427 67.02 174.035 67.7581C173.7 68.3733 173.532 69.1281 173.532 70.0227C173.532 70.6153 173.633 71.1579 173.834 71.6499C174.047 72.1419 174.332 72.5335 174.69 72.8241C175.046 73.1105 175.491 73.2646 175.948 73.2603V73.2603M165.943 74.4681C164.746 74.4681 163.773 74.1045 163.024 73.3777C162.219 72.5838 161.816 71.4766 161.816 70.0563C161.816 68.6136 162.219 67.501 163.024 66.718C163.751 66.0022 164.724 65.6444 165.943 65.6444C167.139 65.6444 168.112 66.0022 168.862 66.718C169.667 67.501 170.069 68.6136 170.069 70.0563C170.069 71.4766 169.667 72.5838 168.862 73.3777C168.101 74.1045 167.128 74.4681 165.943 74.4681V74.4681M165.943 73.3777C166.77 73.3777 167.419 73.0199 167.889 72.3041C168.291 71.6779 168.493 70.9286 168.493 70.0563C168.493 69.1617 168.291 68.4068 167.889 67.7916C167.419 67.0758 166.77 66.718 165.943 66.718C165.115 66.718 164.467 67.0758 163.997 67.7916C163.594 68.4068 163.393 69.1617 163.393 70.0563C163.393 70.9286 163.594 71.6779 163.997 72.3041C164.444 73.0199 165.093 73.3777 165.943 73.3777V73.3777M155.77 74.4681C154.573 74.4681 153.6 74.1045 152.851 73.3777C152.046 72.5838 151.643 71.4766 151.643 70.0563C151.643 68.6136 152.046 67.501 152.851 66.718C153.578 66.0022 154.551 65.6444 155.77 65.6444C156.966 65.6444 157.939 66.0022 158.689 66.718C159.494 67.501 159.897 68.6136 159.897 70.0563C159.897 71.4766 159.494 72.5838 158.689 73.3777C157.928 74.1045 156.955 74.4681 155.77 74.4681V74.4681M155.77 73.3777C156.597 73.3777 157.246 73.0199 157.716 72.3041C158.118 71.6779 158.32 70.9286 158.32 70.0563C158.32 69.1617 158.118 68.4068 157.716 67.7916C157.246 67.0758 156.597 66.718 155.77 66.718C154.942 66.718 154.294 67.0758 153.824 67.7916C153.421 68.4068 153.22 69.1617 153.22 70.0563C153.22 70.9286 153.421 71.6779 153.824 72.3041C154.271 73.0199 154.92 73.3777 155.77 73.3777V73.3777M146.996 74.25V66.9529H145.318V65.8625H146.996V64.6044C146.996 64.0115 147.074 63.514 147.231 63.1114C147.354 62.854 147.505 62.6417 147.684 62.474C147.739 62.4291 147.795 62.3901 147.851 62.3565L148.019 62.2559C148.111 62.21 148.206 62.1707 148.304 62.1385C148.413 62.0946 148.525 62.0609 148.64 62.0378C148.79 62.0147 148.941 61.9979 149.093 61.9875C149.26 61.9759 149.428 61.9703 149.596 61.9707C150.021 61.9707 150.384 62.0265 150.686 62.1385V63.3798C150.429 63.2567 150.149 63.1881 149.864 63.1785C149.45 63.156 149.165 63.1895 149.009 63.2792C148.945 63.3145 148.883 63.3537 148.824 63.3966C148.791 63.4301 148.735 63.5195 148.656 63.665C148.556 63.8773 148.506 64.2018 148.506 64.6379V65.8625H150.519V66.9529H148.506V74.25H146.996V74.25M136.411 74.25V62.1385H137.92V74.25H136.411V74.25M129.71 74.4681C128.916 74.4681 128.206 74.2668 127.58 73.8642C126.864 73.4168 126.506 72.8074 126.506 72.0357C126.506 70.8837 127.015 70.0508 128.033 69.5362C128.816 69.1449 129.822 68.9491 131.052 68.9491C131.187 68.9491 131.382 68.9546 131.639 68.9659C131.908 68.9772 132.098 68.9827 132.21 68.9827C132.256 68.796 132.278 68.6045 132.277 68.4123C132.277 67.3164 131.651 66.7684 130.398 66.7684C129.884 66.7684 129.464 66.8635 129.14 67.0535C128.726 67.2884 128.519 67.6462 128.519 68.1271H126.959C126.959 66.4719 128.083 65.6444 130.331 65.6444C132.12 65.6444 133.2 66.1196 133.569 67.0703C133.692 67.4058 133.753 68.2894 133.753 69.7208V71.1802C133.753 72.8354 133.826 73.8587 133.971 74.25H132.461C132.439 74.1271 132.411 73.9648 132.378 73.7635C132.34 73.5181 132.306 73.2721 132.277 73.0254C132.091 73.2418 131.901 73.4543 131.707 73.6629C131.539 73.8419 131.382 73.9761 131.237 74.0655C130.823 74.3339 130.314 74.4681 129.71 74.4681V74.4681M129.727 73.3442C130.689 73.3442 131.36 73.0254 131.74 72.388C132.042 71.896 132.193 71.1411 132.193 70.1234C131.746 70.0898 131.455 70.073 131.321 70.073C130.572 70.073 129.895 70.185 129.291 70.4085C128.475 70.7105 128.066 71.1857 128.066 71.8344C128.066 72.2818 128.234 72.6509 128.57 72.9416C128.872 73.21 129.257 73.3442 129.727 73.3442V73.3442M120.617 74.25V65.8625H122.127V67.0032C122.362 66.6006 122.659 66.3209 123.016 66.1645C123.475 65.9632 124.202 65.8625 125.197 65.8625V67.2045C123.151 67.2045 122.127 67.9874 122.127 69.553V74.25H120.617V74.25M113.879 74.4681C111.743 74.4681 110.675 73.4393 110.675 71.3815V65.8625H112.184V71.415C112.184 71.7954 112.274 72.1419 112.453 72.4551C112.64 72.7547 112.9 73.0026 113.208 73.1764C113.513 73.3534 113.861 73.446 114.214 73.4448C114.628 73.4448 114.997 73.3554 115.321 73.1764C115.651 72.9919 115.928 72.7263 116.126 72.4048C116.328 72.0693 116.428 71.6889 116.428 71.2641V65.8625H117.938V74.25H116.428V73.1764C115.869 74.0374 115.019 74.4681 113.879 74.4681V74.4681M107.262 74.4849C106.635 74.4849 106.166 74.3171 105.852 73.9816C105.551 73.6461 105.4 73.0032 105.4 72.0525V66.9361H103.89V65.8625H105.4V64.2018L106.909 63.5811V65.8625H108.755V66.9361H106.909V72.0525C106.909 72.8912 107.194 73.3106 107.765 73.3106C107.955 73.3106 108.134 73.2993 108.302 73.2771C108.469 73.2435 108.62 73.21 108.755 73.1764V74.25C108.553 74.3171 108.324 74.3729 108.067 74.4178C107.821 74.4626 107.553 74.4849 107.262 74.4849V74.4849M97.9608 74.4681C97.1669 74.4681 96.4568 74.2668 95.8303 73.8642C95.1148 73.4168 94.7568 72.8074 94.7568 72.0357C94.7568 70.8837 95.2658 70.0508 96.2833 69.5362C97.0662 69.1449 98.0727 68.9491 99.3028 68.9491C99.437 68.9491 99.6328 68.9546 99.8899 68.9659C100.158 68.9772 100.349 68.9827 100.46 68.9827C100.506 68.796 100.528 68.6045 100.527 68.4123C100.527 67.3164 99.9012 66.7684 98.6486 66.7684C98.1343 66.7684 97.7149 66.8635 97.3904 67.0535C96.9768 67.2884 96.7698 67.6462 96.7698 68.1271H95.2097C95.2097 66.4719 96.3336 65.6444 98.5815 65.6444C100.371 65.6444 101.45 66.1196 101.819 67.0703C101.942 67.4058 102.004 68.2894 102.004 69.7208V71.1802C102.004 72.8354 102.076 73.8587 102.222 74.25H100.712C100.69 74.1271 100.662 73.9648 100.628 73.7635C100.59 73.5181 100.556 73.2721 100.527 73.0254C100.342 73.2418 100.151 73.4543 99.957 73.6629C99.7893 73.8419 99.6328 73.9761 99.4873 74.0655C99.0737 74.3339 98.5647 74.4681 97.9608 74.4681V74.4681M97.9776 73.3442C98.9395 73.3442 99.6105 73.0254 99.9906 72.388C100.293 71.896 100.443 71.1411 100.443 70.1234C99.9963 70.0898 99.7054 70.073 99.5712 70.073C98.8221 70.073 98.1453 70.185 97.5414 70.4085C96.7252 70.7105 96.3168 71.1857 96.3168 71.8344C96.3168 72.2818 96.4846 72.6509 96.8201 72.9416C97.122 73.21 97.5079 73.3442 97.9776 73.3442V73.3442M85.2178 74.25V65.8625H86.7276V66.9361L87.0966 66.5671C87.2196 66.4329 87.337 66.3042 87.4489 66.1812C87.8961 65.8235 88.5057 65.6444 89.2774 65.6444C91.4246 65.6444 92.4982 66.6732 92.4982 68.731V74.25H91.0052V68.6975C91.0052 68.3172 90.9101 67.9762 90.72 67.6742C90.5361 67.3673 90.2761 67.1131 89.9652 66.9361C89.6632 66.7461 89.3219 66.6509 88.9419 66.6509C88.5393 66.6509 88.1702 66.7461 87.8347 66.9361C87.4992 67.1151 87.2308 67.3723 87.0295 67.7078C86.8282 68.032 86.7276 68.4068 86.7276 68.8317V74.25H85.2178V74.25" fill="var(--fill-0, #304E2A)"/>
</g>
</svg>
