<svg preserveAspectRatio="none" width="100%" height="100%" overflow="visible" style="display: block;" viewBox="0 0 220 110" fill="none" xmlns="http://www.w3.org/2000/svg">
<g id="logo-art-07.svg">
<path id="Vector" d="M42.9 64.859C38.8446 64.8599 35.0731 66.9406 32.9095 70.3706L30.2241 74.6273L31.2559 75.2791C31.5792 75.465 31.9068 75.6432 32.2385 75.8134L34.8865 71.6183C36.6219 68.867 39.6472 67.1983 42.9 67.1982C46.1528 67.1983 49.1781 68.867 50.9135 71.6183L53.5604 75.8134C53.8922 75.6433 54.2198 75.4651 54.543 75.2791L55.5758 74.6273L52.8905 70.3706C50.727 66.9404 46.9554 64.8597 42.9 64.859V64.859M43.0438 74.2176L42.9 74.2118C42.1853 74.2121 41.5275 74.6015 41.1835 75.2279L41.1196 75.3558L39.8252 78.1809C40.6398 78.2881 41.4675 78.3541 42.3066 78.375L42.9 77.0792L43.4923 78.375C44.3227 78.3542 45.1513 78.2894 45.9748 78.1809L44.6817 75.3558L44.6177 75.2279C44.2981 74.6463 43.7057 74.266 43.0438 74.2176V74.2176M44.0688 46.1249V31.625H41.7313V46.1249L37.9786 32.1192L35.7208 32.7242L39.4724 46.7288L32.2248 34.1729L30.2002 35.3419L37.4478 47.8965L27.1986 37.6456L25.5445 39.2997L35.794 49.5506L23.2413 42.3019L22.0726 44.327L34.6264 51.5757L20.6242 47.8236L20.0192 50.0816L34.0238 53.8348H19.525V56.1729H34.0238L20.0192 59.9261L20.6242 62.1841L34.6264 58.4306L22.0726 65.6807L23.2413 67.7058L35.794 60.4557L25.5447 70.708L27.1983 72.3621L34.8609 64.6965C35.5182 64.0387 35.8874 63.147 35.8875 62.2171V55.5085C35.8875 51.6351 39.0274 48.4949 42.9 48.4949C46.7728 48.4949 49.9125 51.6348 49.9125 55.5085V62.2182C49.9125 63.148 50.2818 64.0398 50.9394 64.6976L58.6017 72.3621L60.2555 70.708L50.006 60.4571L62.5586 67.7058L63.7274 65.6807L51.1737 58.4306L65.1758 62.1841L65.7808 59.9261L51.7776 56.1729H66.275V53.8348H51.7762L65.7808 50.0816L65.1758 47.8236L51.1737 51.5746L63.7274 44.327L62.5586 42.3019L50.0038 49.5506L60.2555 39.2986L58.6028 37.6456L48.351 47.8979L55.5998 35.3419L53.5752 34.1729L46.3262 46.7288L50.0792 32.7242L47.8214 32.1192L44.0688 46.1249V46.1249M42.9 69.5359C40.5766 69.5363 38.4345 70.7914 37.2983 72.8181L34.955 76.9959C35.7057 77.2674 36.4699 77.4999 37.2446 77.6925L39.3368 73.9618C40.0593 72.6724 41.422 71.8738 42.9 71.8738C44.378 71.8738 45.7407 72.6724 46.4632 73.9618L48.5543 77.6925C49.329 77.4997 50.0932 77.2672 50.8439 76.9959L48.5018 72.8181C47.3658 70.7912 45.2235 69.536 42.9 69.5359V69.5359" fill="var(--fill-0, #FF721A)"/>
<path id="Vector_2" d="M194.657 46.9516C194.657 46.5894 194.495 46.3559 194.172 46.2511C193.849 46.1464 193.464 46.0938 193.017 46.0938H192.931V44.55H199.776V46.0938H199.505C198.897 46.0938 198.388 46.2701 197.98 46.6229C197.571 46.9659 197.115 47.495 196.611 48.2097L192.375 53.9993L197.751 62.348C198.132 62.9483 198.526 63.3581 198.935 63.5772C199.344 63.7871 199.729 63.8918 200.09 63.8918H200.475V65.45H190.835V63.8918H190.978C192.147 63.8918 192.732 63.5726 192.732 62.934C192.732 62.6766 192.661 62.4049 192.518 62.1192C192.375 61.8332 192.124 61.4331 191.762 60.9183L189.081 56.8441L185.93 61.1185C185.735 61.3896 185.564 61.6765 185.417 61.9762C185.255 62.2908 185.174 62.6004 185.174 62.9054C185.174 63.2294 185.307 63.4772 185.573 63.6488C185.84 63.8107 186.296 63.8918 186.942 63.8918H187.042V65.45H179.67V63.8918H179.855C180.54 63.8918 181.101 63.706 181.538 63.3342C181.975 62.953 182.427 62.4574 182.893 61.8475L187.998 55.1716L183.178 47.652C182.855 47.1278 182.517 46.7371 182.165 46.4799C181.813 46.2225 181.314 46.0938 180.668 46.0938H180.283V44.55H189.951V46.0938H189.866C188.715 46.0938 188.14 46.3798 188.14 46.9516C188.14 47.1518 188.212 47.4042 188.354 47.7092C188.521 48.0391 188.706 48.3589 188.91 48.667L191.335 52.2981L193.873 48.7385C194.056 48.4504 194.227 48.1547 194.386 47.8522C194.567 47.5186 194.657 47.2186 194.657 46.9516V46.9516M174.53 55.4147H167.6V63.663H173.446C174.036 63.663 174.468 63.4535 174.744 63.0341C175.029 62.6051 175.219 62.0716 175.314 61.4331L175.542 60.0605H177.567L177.354 65.45H160.242V63.8918H161.468C161.972 63.8918 162.347 63.7774 162.595 63.5486C162.842 63.3105 162.965 62.8436 162.965 62.1478V47.9952C162.965 47.2519 162.842 46.7514 162.595 46.4942C162.347 46.2272 161.972 46.0938 161.468 46.0938H160.242V44.55H176.455L176.569 49.9394H174.53L174.387 48.5526C174.311 47.8379 174.131 47.2901 173.846 46.9087C173.56 46.5275 173.118 46.3369 172.519 46.3369H167.6V53.6563H174.53V55.4147V55.4147M153.661 46.3369H151.323V61.9905C151.323 62.7338 151.447 63.239 151.694 63.5057C151.95 63.7631 152.326 63.8918 152.82 63.8918H154.046V65.45H143.965V63.8918H145.191C145.695 63.8918 146.071 63.7631 146.318 63.5057C146.565 63.239 146.689 62.7338 146.689 61.9905V46.3369H144.35C143.513 46.3369 142.919 46.5085 142.567 46.8515C142.216 47.1947 142.002 47.7141 141.926 48.4099L141.726 50.2252H139.758L139.915 44.55H158.111L158.253 50.2252H156.3L156.086 48.4099C156.01 47.7141 155.796 47.1947 155.444 46.8515C155.102 46.5085 154.508 46.3369 153.661 46.3369V46.3369M128.843 65.45H118.761V63.8918H119.988C120.463 63.8918 120.829 63.7728 121.086 63.5343C121.352 63.2962 121.485 62.8339 121.485 62.1478V47.8808C121.485 47.185 121.352 46.7134 121.086 46.4656C120.829 46.2179 120.463 46.0938 119.988 46.0938H118.761V44.55H128.173C130.93 44.55 132.95 45.0123 134.233 45.9365C135.526 46.8611 136.173 48.2047 136.173 49.968C136.173 50.74 136.059 51.4261 135.83 52.0264C135.602 52.627 135.303 53.1512 134.932 53.5991C134.561 54.0392 134.128 54.4242 133.649 54.7426C133.188 55.0399 132.701 55.2935 132.194 55.5002L135.674 61.5046C136.12 62.2572 136.572 62.8435 137.028 63.2629C137.485 63.682 138.007 63.8918 138.597 63.8918H138.711V65.45H137.755C136.881 65.45 136.116 65.4167 135.46 65.3499C134.813 65.2833 134.248 65.1497 133.763 64.9498C133.268 64.7589 132.841 64.4922 132.479 64.149C132.128 63.8061 131.8 63.3627 131.495 62.8196L128.03 56.3722H126.091V62.1478C126.091 62.8339 126.219 63.2962 126.476 63.5343C126.742 63.7728 127.113 63.8918 127.588 63.8918H128.843V65.45V65.45M127.674 46.2797H126.091V54.6711H127.731C129.033 54.6711 129.96 54.3089 130.511 53.5848C130.787 53.2227 130.982 52.7747 131.096 52.2409C131.21 51.7071 131.267 51.0829 131.267 50.3682C131.267 48.9005 130.992 47.8475 130.44 47.209C129.898 46.5894 128.976 46.2797 127.674 46.2797V46.2797M113.094 55.4147H106.164V63.663H112.01C112.6 63.663 113.032 63.4535 113.308 63.0341C113.593 62.6051 113.783 62.0716 113.878 61.4331L114.106 60.0605H116.131L115.917 65.45H98.8056V63.8918H100.032C100.536 63.8918 100.911 63.7774 101.158 63.5486C101.406 63.3105 101.529 62.8436 101.529 62.1478V47.9952C101.529 47.2519 101.406 46.7514 101.158 46.4942C100.911 46.2272 100.536 46.0938 100.032 46.0938H98.8056V44.55H115.019L115.133 49.9394H113.094L112.951 48.5526C112.875 47.8379 112.695 47.2901 112.41 46.9087C112.124 46.5275 111.682 46.3369 111.083 46.3369H106.164V53.6563H113.094V55.4147V55.4147M89.5733 44.55H97.1165V46.0938H95.7049C95.3912 46.0938 95.1393 46.2701 94.9492 46.6229C94.7686 46.9755 94.5546 47.5139 94.3074 48.2383L88.3468 65.45H85.4235L79.2063 47.5093C79.035 47.0041 78.7784 46.6419 78.436 46.4227C78.0939 46.2036 77.7469 46.0938 77.3952 46.0938H76.725V44.55H86.3646V46.0938H85.0242C84.7294 46.0938 84.4632 46.17 84.2256 46.3226C83.9976 46.475 83.8835 46.723 83.8835 47.066C83.8835 47.2565 83.9118 47.4757 83.969 47.7235C84.026 47.9619 84.0832 48.1621 84.1401 48.3241L87.1205 57.3444C87.2154 57.6018 87.3152 57.9543 87.42 58.4023C87.5339 58.8406 87.6386 59.2886 87.7335 59.7462C87.8383 60.1939 87.9048 60.5754 87.9332 60.8897C87.9714 60.6612 88.0473 60.3322 88.1614 59.9032C88.2849 59.4745 88.4133 59.0362 88.5464 58.5882C88.6891 58.1306 88.8079 57.7448 88.9028 57.4302L91.9119 48.524C91.9784 48.3431 92.0543 48.1 92.1398 47.795C92.2254 47.4807 92.2683 47.2472 92.2683 47.0946C92.2683 46.7706 92.1588 46.5228 91.9402 46.3512C91.7312 46.1796 91.4507 46.0938 91.099 46.0938H89.5733V44.55V44.55" fill="var(--fill-0, black)"/>
</g>
</svg>
