<svg preserveAspectRatio="none" width="100%" height="100%" overflow="visible" style="display: block;" viewBox="0 0 1470 1078" fill="none" xmlns="http://www.w3.org/2000/svg">
<g id="Clip path group">
<mask id="mask0_0_6" style="mask-type:luminance" maskUnits="userSpaceOnUse" x="0" y="0" width="1470" height="1078">
<path id="Vector" d="M0 0H1470V1078H0V0" fill="var(--fill-0, white)"/>
</mask>
<g mask="url(#mask0_0_6)">
<g id="Group">
<g id="Group_2" opacity="0.9">
<path id="Vector_2" d="M98 82.9227H196V1078H98V82.9227V82.9227" fill="url(#paint0_linear_0_6)"/>
<path id="Vector_3" d="M98 82.9227H196V1078H98V82.9227V82.9227" fill="url(#paint1_linear_0_6)" fill-opacity="0.2"/>
<path id="Vector_4" d="M0 0H98V1078H0V0V0" fill="url(#paint2_linear_0_6)"/>
<path id="Vector_5" d="M0 0H98V1078H0V0V0" fill="url(#paint3_linear_0_6)" fill-opacity="0.2"/>
<path id="Vector_6" d="M196 165.845H294V1078H196V165.845V165.845" fill="url(#paint4_linear_0_6)"/>
<path id="Vector_7" d="M196 165.845H294V1078H196V165.845V165.845" fill="url(#paint5_linear_0_6)" fill-opacity="0.2"/>
<path id="Vector_8" d="M294 248.769H392V1078H294V248.769V248.769" fill="url(#paint6_linear_0_6)"/>
<path id="Vector_9" d="M294 248.769H392V1078H294V248.769V248.769" fill="url(#paint7_linear_0_6)" fill-opacity="0.2"/>
<path id="Vector_10" d="M392 248.769H490V1078H392V248.769V248.769" fill="url(#paint8_linear_0_6)"/>
<path id="Vector_11" d="M392 248.769H490V1078H392V248.769V248.769" fill="url(#paint9_linear_0_6)" fill-opacity="0.2"/>
<path id="Vector_12" d="M490 248.769H588V1078H490V248.769V248.769" fill="url(#paint10_linear_0_6)"/>
<path id="Vector_13" d="M490 248.769H588V1078H490V248.769V248.769" fill="url(#paint11_linear_0_6)" fill-opacity="0.2"/>
<path id="Vector_14" d="M588 248.769H686V1078H588V248.769V248.769" fill="url(#paint12_linear_0_6)"/>
<path id="Vector_15" d="M588 248.769H686V1078H588V248.769V248.769" fill="url(#paint13_linear_0_6)" fill-opacity="0.2"/>
<path id="Vector_16" d="M686 248.769H784V1078H686V248.769V248.769" fill="url(#paint14_linear_0_6)"/>
<path id="Vector_17" d="M686 248.769H784V1078H686V248.769V248.769" fill="url(#paint15_linear_0_6)" fill-opacity="0.2"/>
<path id="Vector_18" d="M784 248.769H882V1078H784V248.769V248.769" fill="url(#paint16_linear_0_6)"/>
<path id="Vector_19" d="M784 248.769H882V1078H784V248.769V248.769" fill="url(#paint17_linear_0_6)" fill-opacity="0.2"/>
<path id="Vector_20" d="M882 248.769H980V1078H882V248.769V248.769" fill="url(#paint18_linear_0_6)"/>
<path id="Vector_21" d="M882 248.769H980V1078H882V248.769V248.769" fill="url(#paint19_linear_0_6)" fill-opacity="0.2"/>
<path id="Vector_22" d="M980 248.769H1078V1078H980V248.769V248.769" fill="url(#paint20_linear_0_6)"/>
<path id="Vector_23" d="M980 248.769H1078V1078H980V248.769V248.769" fill="url(#paint21_linear_0_6)" fill-opacity="0.2"/>
<path id="Vector_24" d="M1078 248.769H1176V1078H1078V248.769V248.769" fill="url(#paint22_linear_0_6)"/>
<path id="Vector_25" d="M1078 248.769H1176V1078H1078V248.769V248.769" fill="url(#paint23_linear_0_6)" fill-opacity="0.2"/>
<path id="Vector_26" d="M1176 165.845H1274V1078H1176V165.845V165.845" fill="url(#paint24_linear_0_6)"/>
<path id="Vector_27" d="M1176 165.845H1274V1078H1176V165.845V165.845" fill="url(#paint25_linear_0_6)" fill-opacity="0.2"/>
<path id="Vector_28" d="M1274 82.9227H1372V1078H1274V82.9227V82.9227" fill="url(#paint26_linear_0_6)"/>
<path id="Vector_29" d="M1274 82.9227H1372V1078H1274V82.9227V82.9227" fill="url(#paint27_linear_0_6)" fill-opacity="0.2"/>
<path id="Vector_30" d="M1372 0H1470V1078H1372V0V0" fill="url(#paint28_linear_0_6)"/>
<path id="Vector_31" d="M1372 0H1470V1078H1372V0V0" fill="url(#paint29_linear_0_6)" fill-opacity="0.2"/>
</g>
<path id="Vector_32" d="M0 0H1470V441.98H0V0V0" fill="var(--fill-0, white)"/>
<path id="Vector_33" d="M0 441H1470V1078H0V441V441" fill="url(#paint30_linear_0_6)"/>
<path id="Vector_34" d="M0 1274C811.858 1274 1470 944.93 1470 539C1470 133.07 811.858 -196 0 -196C-811.858 -196 -1470 133.07 -1470 539C-1470 944.93 -811.858 1274 0 1274V1274" fill="url(#paint31_radial_0_6)"/>
<path id="Vector_35" d="M0 1274C811.858 1274 1470 944.93 1470 539C1470 133.07 811.858 -196 0 -196C-811.858 -196 -1470 133.07 -1470 539C-1470 944.93 -811.858 1274 0 1274V1274" fill="url(#paint32_radial_0_6)"/>
</g>
</g>
</g>
<defs>
<linearGradient id="paint0_linear_0_6" x1="205.8" y1="82.9227" x2="-238.243" y2="250.605" gradientUnits="userSpaceOnUse">
<stop offset="0.1" stop-color="white"/>
<stop offset="1" stop-color="white" stop-opacity="0"/>
</linearGradient>
<linearGradient id="paint1_linear_0_6" x1="98" y1="580.462" x2="196" y2="580.462" gradientUnits="userSpaceOnUse">
<stop stop-color="white" stop-opacity="0"/>
<stop offset="1" stop-color="white" stop-opacity="0.5"/>
</linearGradient>
<linearGradient id="paint2_linear_0_6" x1="107.8" y1="1.93769e-05" x2="-344.593" y2="157.695" gradientUnits="userSpaceOnUse">
<stop offset="0.1" stop-color="white"/>
<stop offset="1" stop-color="white" stop-opacity="0"/>
</linearGradient>
<linearGradient id="paint3_linear_0_6" x1="0" y1="539" x2="98" y2="539" gradientUnits="userSpaceOnUse">
<stop stop-color="white" stop-opacity="0"/>
<stop offset="1" stop-color="white" stop-opacity="0.5"/>
</linearGradient>
<linearGradient id="paint4_linear_0_6" x1="303.8" y1="165.845" x2="-129.953" y2="344.533" gradientUnits="userSpaceOnUse">
<stop offset="0.1" stop-color="white"/>
<stop offset="1" stop-color="white" stop-opacity="0"/>
</linearGradient>
<linearGradient id="paint5_linear_0_6" x1="196" y1="621.923" x2="294" y2="621.923" gradientUnits="userSpaceOnUse">
<stop stop-color="white" stop-opacity="0"/>
<stop offset="1" stop-color="white" stop-opacity="0.5"/>
</linearGradient>
<linearGradient id="paint6_linear_0_6" x1="401.8" y1="248.769" x2="-19.1276" y2="439.512" gradientUnits="userSpaceOnUse">
<stop offset="0.1" stop-color="white"/>
<stop offset="1" stop-color="white" stop-opacity="0"/>
</linearGradient>
<linearGradient id="paint7_linear_0_6" x1="294" y1="663.385" x2="392" y2="663.385" gradientUnits="userSpaceOnUse">
<stop stop-color="white" stop-opacity="0"/>
<stop offset="1" stop-color="white" stop-opacity="0.5"/>
</linearGradient>
<linearGradient id="paint8_linear_0_6" x1="499.8" y1="248.769" x2="78.8724" y2="439.512" gradientUnits="userSpaceOnUse">
<stop offset="0.1" stop-color="white"/>
<stop offset="1" stop-color="white" stop-opacity="0"/>
</linearGradient>
<linearGradient id="paint9_linear_0_6" x1="392" y1="663.385" x2="490" y2="663.385" gradientUnits="userSpaceOnUse">
<stop stop-color="white" stop-opacity="0"/>
<stop offset="1" stop-color="white" stop-opacity="0.5"/>
</linearGradient>
<linearGradient id="paint10_linear_0_6" x1="597.8" y1="248.769" x2="176.872" y2="439.512" gradientUnits="userSpaceOnUse">
<stop offset="0.1" stop-color="white"/>
<stop offset="1" stop-color="white" stop-opacity="0"/>
</linearGradient>
<linearGradient id="paint11_linear_0_6" x1="490" y1="663.385" x2="588" y2="663.385" gradientUnits="userSpaceOnUse">
<stop stop-color="white" stop-opacity="0"/>
<stop offset="1" stop-color="white" stop-opacity="0.5"/>
</linearGradient>
<linearGradient id="paint12_linear_0_6" x1="695.8" y1="248.769" x2="274.872" y2="439.512" gradientUnits="userSpaceOnUse">
<stop offset="0.1" stop-color="white"/>
<stop offset="1" stop-color="white" stop-opacity="0"/>
</linearGradient>
<linearGradient id="paint13_linear_0_6" x1="588" y1="663.385" x2="686" y2="663.385" gradientUnits="userSpaceOnUse">
<stop stop-color="white" stop-opacity="0"/>
<stop offset="1" stop-color="white" stop-opacity="0.5"/>
</linearGradient>
<linearGradient id="paint14_linear_0_6" x1="793.8" y1="248.769" x2="372.872" y2="439.512" gradientUnits="userSpaceOnUse">
<stop offset="0.1" stop-color="white"/>
<stop offset="1" stop-color="white" stop-opacity="0"/>
</linearGradient>
<linearGradient id="paint15_linear_0_6" x1="686" y1="663.385" x2="784" y2="663.385" gradientUnits="userSpaceOnUse">
<stop stop-color="white" stop-opacity="0"/>
<stop offset="1" stop-color="white" stop-opacity="0.5"/>
</linearGradient>
<linearGradient id="paint16_linear_0_6" x1="891.8" y1="248.769" x2="470.872" y2="439.512" gradientUnits="userSpaceOnUse">
<stop offset="0.1" stop-color="white"/>
<stop offset="1" stop-color="white" stop-opacity="0"/>
</linearGradient>
<linearGradient id="paint17_linear_0_6" x1="784" y1="663.385" x2="882" y2="663.385" gradientUnits="userSpaceOnUse">
<stop stop-color="white" stop-opacity="0"/>
<stop offset="1" stop-color="white" stop-opacity="0.5"/>
</linearGradient>
<linearGradient id="paint18_linear_0_6" x1="989.8" y1="248.769" x2="568.872" y2="439.512" gradientUnits="userSpaceOnUse">
<stop offset="0.1" stop-color="white"/>
<stop offset="1" stop-color="white" stop-opacity="0"/>
</linearGradient>
<linearGradient id="paint19_linear_0_6" x1="882" y1="663.385" x2="980" y2="663.385" gradientUnits="userSpaceOnUse">
<stop stop-color="white" stop-opacity="0"/>
<stop offset="1" stop-color="white" stop-opacity="0.5"/>
</linearGradient>
<linearGradient id="paint20_linear_0_6" x1="1087.8" y1="248.769" x2="666.872" y2="439.512" gradientUnits="userSpaceOnUse">
<stop offset="0.1" stop-color="white"/>
<stop offset="1" stop-color="white" stop-opacity="0"/>
</linearGradient>
<linearGradient id="paint21_linear_0_6" x1="980" y1="663.385" x2="1078" y2="663.385" gradientUnits="userSpaceOnUse">
<stop stop-color="white" stop-opacity="0"/>
<stop offset="1" stop-color="white" stop-opacity="0.5"/>
</linearGradient>
<linearGradient id="paint22_linear_0_6" x1="1185.8" y1="248.769" x2="764.872" y2="439.512" gradientUnits="userSpaceOnUse">
<stop offset="0.1" stop-color="white"/>
<stop offset="1" stop-color="white" stop-opacity="0"/>
</linearGradient>
<linearGradient id="paint23_linear_0_6" x1="1078" y1="663.385" x2="1176" y2="663.385" gradientUnits="userSpaceOnUse">
<stop stop-color="white" stop-opacity="0"/>
<stop offset="1" stop-color="white" stop-opacity="0.5"/>
</linearGradient>
<linearGradient id="paint24_linear_0_6" x1="1283.8" y1="165.845" x2="850.047" y2="344.533" gradientUnits="userSpaceOnUse">
<stop offset="0.1" stop-color="white"/>
<stop offset="1" stop-color="white" stop-opacity="0"/>
</linearGradient>
<linearGradient id="paint25_linear_0_6" x1="1176" y1="621.923" x2="1274" y2="621.923" gradientUnits="userSpaceOnUse">
<stop stop-color="white" stop-opacity="0"/>
<stop offset="1" stop-color="white" stop-opacity="0.5"/>
</linearGradient>
<linearGradient id="paint26_linear_0_6" x1="1381.8" y1="82.9227" x2="937.761" y2="250.606" gradientUnits="userSpaceOnUse">
<stop offset="0.1" stop-color="white"/>
<stop offset="1" stop-color="white" stop-opacity="0"/>
</linearGradient>
<linearGradient id="paint27_linear_0_6" x1="1274" y1="580.462" x2="1372" y2="580.462" gradientUnits="userSpaceOnUse">
<stop stop-color="white" stop-opacity="0"/>
<stop offset="1" stop-color="white" stop-opacity="0.5"/>
</linearGradient>
<linearGradient id="paint28_linear_0_6" x1="1479.8" y1="-2.22664e-05" x2="1027.4" y2="157.694" gradientUnits="userSpaceOnUse">
<stop offset="0.1" stop-color="white"/>
<stop offset="1" stop-color="white" stop-opacity="0"/>
</linearGradient>
<linearGradient id="paint29_linear_0_6" x1="1372" y1="539" x2="1470" y2="539" gradientUnits="userSpaceOnUse">
<stop stop-color="white" stop-opacity="0"/>
<stop offset="1" stop-color="white" stop-opacity="0.5"/>
</linearGradient>
<linearGradient id="paint30_linear_0_6" x1="735" y1="441" x2="735" y2="1078" gradientUnits="userSpaceOnUse">
<stop stop-color="white"/>
<stop offset="0.95" stop-color="white" stop-opacity="0"/>
</linearGradient>
<radialGradient id="paint31_radial_0_6" cx="0" cy="0" r="1" gradientUnits="userSpaceOnUse" gradientTransform="translate(0 539) rotate(90) scale(735 1470)">
<stop stop-color="white"/>
<stop offset="1" stop-color="white" stop-opacity="0"/>
</radialGradient>
<radialGradient id="paint32_radial_0_6" cx="0" cy="0" r="1" gradientUnits="userSpaceOnUse" gradientTransform="translate(0 539) rotate(90) scale(735 1470)">
<stop offset="0.5" stop-color="white"/>
<stop offset="1" stop-color="white" stop-opacity="0"/>
</radialGradient>
</defs>
</svg>
