<svg width="748" height="227" viewBox="0 0 748 227" fill="none" xmlns="http://www.w3.org/2000/svg">
<path d="M639.49 10.8613C580.16 10.8613 531.68 59.3313 531.68 118.641C531.68 177.951 580.16 226.441 639.49 226.441C698.82 226.441 747.28 178.281 747.28 118.641C747.28 59.0013 699.12 10.8613 639.49 10.8613Z" fill="#FDB819"/>
<path d="M53.94 113.21C53.94 145.88 80.56 172.21 113.25 172.21C129.41 172.21 144.32 165.86 155.74 154.45L194.44 191.87C172.86 214.07 144.02 226.45 113.25 226.45C50.76 226.45 0 175.71 0 113.22C0 50.73 50.75 0 113.25 0C146.23 0 177.61 14.59 199.2 39.64L158.28 74.84C146.87 61.51 130.36 53.91 113.24 53.91C80.55 53.91 53.93 80.55 53.93 113.21H53.94Z" fill="#FDB819"/>
<path d="M471 118.65C471 178.27 422.81 226.45 363.19 226.45C303.57 226.45 255.41 178.28 255.41 118.65C255.41 59.0196 303.88 10.8496 363.19 10.8496C422.5 10.8496 471 59.3296 471 118.65ZM418.83 118.65C418.83 87.8696 393.97 63.0096 363.2 63.0096C332.43 63.0096 307.57 87.8696 307.57 118.65C307.57 149.43 332.73 174.29 363.2 174.29C393.67 174.29 418.83 149.44 418.83 118.65Z" fill="#FDB819"/>
</svg>
