<svg width="512" height="512" viewBox="0 0 512 512" fill="none" xmlns="http://www.w3.org/2000/svg">
<rect width="512" height="512" rx="80" fill="white"/>
<path d="M366.228 208.385C366.228 208.595 364.043 221.234 361.351 236.464C358.659 251.694 356.474 264.753 356.474 265.453C356.474 266.364 356.786 266.994 357.488 267.659C358.425 268.499 358.815 268.569 361.585 268.569C363.302 268.569 364.668 268.639 364.668 268.779C364.668 268.954 362.912 279.003 362.522 281.068C362.327 282.049 362.131 282.224 360.454 282.539C354.952 283.589 347.694 283.274 343.363 281.839C340.593 280.893 337.706 278.513 336.535 276.202C335.716 274.556 335.599 273.821 335.638 270.145C335.638 266.504 336.34 262.162 340.788 237.129C343.637 221.304 345.939 208.245 345.939 208.175C345.939 208.07 350.504 208 356.083 208C363.263 208 366.228 208.105 366.228 208.385Z" fill="black"/>
<path d="M115.337 213.287C115.337 213.602 113.737 222.88 113.191 225.751L112.957 226.906H119.043C122.945 226.906 125.091 227.046 125.091 227.256C125.091 227.711 123.179 238.67 122.945 239.755C122.75 240.525 122.594 240.56 116.624 240.63L110.537 240.735L108.274 253.515C105.777 267.624 105.699 268.394 106.596 268.709C106.948 268.814 109.562 268.919 112.449 268.919C117.288 268.919 117.717 268.954 117.522 269.515C117.405 269.865 116.858 272.946 116.273 276.377L115.181 282.644L105.582 282.504C97.1538 282.364 95.7102 282.259 93.4471 281.594C88.5307 280.158 86.0725 277.707 85.3311 273.541C84.8629 270.81 85.019 269.305 87.7893 253.83C88.9989 247.178 89.9744 241.471 89.9744 241.121C89.9744 240.63 89.3891 240.56 85.4872 240.56C82.6778 240.56 81 240.42 81 240.21C81 239.755 82.9119 228.797 83.1851 227.676C83.3412 226.941 83.4972 226.906 87.9844 226.906H92.5887L93.4861 221.899C93.9543 219.169 94.5005 216.018 94.7347 214.897L95.1249 212.902H105.231C112.059 212.902 115.337 213.007 115.337 213.287Z" fill="black"/>
<path fill-rule="evenodd" clip-rule="evenodd" d="M238.519 235.869C239.144 237.689 239.261 237.795 240.353 237.689L241.563 237.584L242.499 232.228L243.397 226.906H263.609L263.414 227.676C263.299 228.122 261.274 239.59 258.844 253.355L258.843 253.359L258.692 254.215C256.234 268.359 254.01 280.718 253.815 281.699C251.279 292.902 244.021 299.729 231.379 302.775C227.867 303.616 226.892 303.686 220.103 303.721C212.026 303.721 209.255 303.335 204.378 301.585C197.472 299.134 192.906 294.758 191.229 288.981C190.916 287.896 190.643 286.6 190.643 286.18V285.375H210.777L211.479 286.775C212.806 289.471 215.849 290.766 220.883 290.766C226.463 290.766 229.935 289.016 232.159 285.06C233.33 283.029 233.759 281.488 234.774 275.747C235.71 270.355 235.71 270.32 234.579 270.32C233.876 270.32 233.291 270.845 232.042 272.561C227.243 279.213 219.556 281.979 210.465 280.298C200.437 278.443 194.311 271.265 193.414 260.237C192.516 248.998 196.145 239.09 203.676 232.298C206.212 230.022 207.499 229.182 210.153 228.026C216.006 225.506 222.405 225.015 227.867 226.626C232.862 228.096 237.076 231.773 238.519 235.869ZM214.718 249.838C216.005 246.057 219.556 242.626 223.38 241.506C224.356 241.191 226.15 240.945 227.36 240.945C233.72 240.875 237.973 244.447 238.519 250.328C239.105 256.631 235.71 262.582 230.247 264.753C227.555 265.838 222.795 265.873 220.298 264.823C218.074 263.913 216.318 262.337 215.147 260.237C214.367 258.836 214.25 258.031 214.25 254.915C214.25 252.884 214.484 250.609 214.718 249.838Z" fill="black"/>
<path fill-rule="evenodd" clip-rule="evenodd" d="M310.041 235.764C310.666 237.374 310.9 237.584 311.953 237.689C312.616 237.76 313.163 237.689 313.163 237.514C313.163 237.094 314.684 228.622 314.919 227.676L315.114 226.906H325.063C330.955 226.906 335.013 227.046 335.013 227.221C335.013 228.447 325.493 281.559 324.868 283.799C321.123 297.244 308.441 304.421 289.556 303.826C282.611 303.581 278.592 302.775 273.91 300.745C267.354 297.874 263.531 293.252 262.282 286.67L262.009 285.375H282.338L282.767 286.355C283.274 287.51 284.913 289.121 286.279 289.786C288.113 290.626 292.248 291.012 295.058 290.626C301.613 289.681 304.266 286.565 305.944 277.917L306.2 276.575C307.139 271.661 307.345 270.583 306.954 270.363C306.844 270.302 306.687 270.307 306.487 270.315C306.415 270.317 306.339 270.32 306.256 270.32C305.359 270.32 304.969 270.67 303.993 272.14C303.369 273.121 301.847 274.801 300.638 275.887C291.741 283.939 275.314 281.804 268.681 271.755C264.272 265.068 263.57 254.32 266.964 244.692C269.344 237.97 273.832 232.403 279.723 228.972C284.796 225.996 292.483 224.91 298.531 226.276C303.642 227.431 308.285 231.247 310.041 235.764ZM289.79 244.587C284.211 250.013 284.172 259.746 289.634 263.563C291.897 265.138 293.536 265.593 296.775 265.593C301.73 265.558 305.71 263.423 308.012 259.571C309.612 256.841 310.08 255.09 310.08 251.729C310.08 247.948 309.261 245.777 306.959 243.711C304.071 241.121 299.545 240.21 295.409 241.401C292.873 242.136 291.546 242.871 289.79 244.587Z" fill="black"/>
<path fill-rule="evenodd" clip-rule="evenodd" d="M411.803 226.801C424.015 229.952 431.039 238.95 431 251.344C430.961 253.234 430.766 255.685 430.493 256.841L429.985 258.941L408.993 259.046L387.962 259.116L388.235 261.322C388.547 263.983 390.03 266.889 391.747 268.044C396.117 271.02 405.013 270.18 407.862 266.504L408.954 265.103L418.826 265.068C424.952 265.068 428.659 265.208 428.659 265.418C428.659 265.593 428.23 266.784 427.722 268.009C423.625 277.742 412.661 283.589 398.497 283.624C382.616 283.624 372.081 276.307 369.35 263.318C368.804 260.762 368.804 254.145 369.389 251.169C371.301 240.665 377.583 232.823 387.416 228.622C393.659 225.961 399.277 225.261 407.706 226.066C408.798 226.171 410.671 226.486 411.803 226.801ZM389.874 247.458C391.357 243.116 395.024 239.79 399.277 238.81C401.736 238.285 405.208 238.705 407.198 239.79C409.266 240.91 410.905 243.536 411.295 246.407L411.568 248.263H389.601L389.874 247.458Z" fill="black"/>
<path fill-rule="evenodd" clip-rule="evenodd" d="M165.593 226.416C181.201 229.287 190.643 241.576 188.77 256.666C188.497 258.766 187.912 261.567 187.483 262.863C183.815 273.506 173.826 281.348 161.418 283.274C157.945 283.834 150.727 283.764 147.449 283.134C135.47 280.893 126.964 273.436 124.506 263.003C123.765 259.817 123.765 253.339 124.467 249.943C127.042 237.83 137.499 228.482 151.039 226.241C154.317 225.716 162.276 225.786 165.593 226.416ZM153.731 241.541C149.868 242.766 147.02 245.602 145.303 249.908C144.172 252.744 143.899 258.626 144.757 261.287C146.279 265.978 149.79 268.569 154.707 268.569C158.257 268.569 160.599 267.764 163.057 265.768C166.803 262.722 168.559 258.626 168.52 253.164C168.52 247.528 166.764 244.026 163.096 242.101C160.716 240.84 156.658 240.595 153.731 241.541Z" fill="black"/>
</svg>
