<svg preserveAspectRatio="none" width="100%" height="100%" overflow="visible" style="display: block;" viewBox="0 0 44 44" fill="none" xmlns="http://www.w3.org/2000/svg">
<g id="SVG - xml version=&#34;1.0&#34; encoding=&#34;UTF-8">
<path id="Vector" d="M39.5312 35.75C39.5312 36.3192 39.0692 36.7812 38.5 36.7812H5.5C4.93084 36.7812 4.46875 36.3192 4.46875 35.75V8.25C4.46875 7.68084 4.93084 7.21875 5.5 7.21875C6.06916 7.21875 6.53125 7.68084 6.53125 8.25V25.2278L15.8211 17.0981C16.188 16.7776 16.7291 16.7575 17.1187 17.05L27.4502 24.7981L37.8211 15.7231C38.252 15.3912 38.8666 15.451 39.2254 15.8598C39.5842 16.2686 39.5639 16.8858 39.1789 17.27L28.1789 26.895C27.812 27.2156 27.2709 27.2356 26.8813 26.9431L16.5498 19.2019L6.53125 27.9675V34.7188H38.5C39.0692 34.7188 39.5312 35.1808 39.5312 35.75V35.75" fill="var(--fill-0, #A2A8A9)"/>
</g>
</svg>
