<svg preserveAspectRatio="none" width="100%" height="100%" overflow="visible" style="display: block;" viewBox="0 0 44 44" fill="none" xmlns="http://www.w3.org/2000/svg">
<g id="SVG - xml version=&#34;1.0&#34; encoding=&#34;UTF-8">
<path id="Vector" d="M38.28 11.6703L23.155 3.39109C22.4362 2.9941 21.5638 2.9941 20.845 3.39109L5.72 11.672C4.94914 12.0938 4.46949 12.9022 4.46875 13.7809V30.2191C4.46949 31.0978 4.94914 31.9062 5.72 32.328L20.845 40.6089C21.564 41.0053 22.436 41.0053 23.155 40.6089L38.28 32.328C39.0509 31.9062 39.5305 31.0978 39.5312 30.2191V13.7809C39.5311 12.9016 39.0514 12.0924 38.28 11.6703V11.6703M21.8281 5.19922C21.9309 5.14297 22.0553 5.14297 22.1581 5.19922L36.5252 13.0625L22 21.01L7.47484 13.0625L21.8281 5.19922M6.70312 30.5198C6.59581 30.4579 6.53014 30.343 6.53125 30.2191V14.8947L20.9688 22.8009V38.3281L6.70312 30.5198M37.2831 30.5198L23.0312 38.3281V22.7975L37.4688 14.8913V30.2156C37.4711 30.3408 37.4053 30.4573 37.2969 30.5198H37.2831" fill="var(--fill-0, #A2A8A9)"/>
</g>
</svg>
