<svg preserveAspectRatio="none" width="100%" height="100%" overflow="visible" style="display: block;" viewBox="0 0 44 44" fill="none" xmlns="http://www.w3.org/2000/svg">
<g id="SVG - xml version=&#34;1.0&#34; encoding=&#34;UTF-8">
<path id="Vector" d="M38.5 34.7188H36.7812V6.875C36.7812 6.30584 36.3192 5.84375 35.75 5.84375H26.125C25.5558 5.84375 25.0938 6.30584 25.0938 6.875V14.0938H16.5C15.9308 14.0938 15.4688 14.5558 15.4688 15.125V22.3438H8.25C7.68084 22.3438 7.21875 22.8058 7.21875 23.375V34.7188H5.5C4.93084 34.7188 4.46875 35.1808 4.46875 35.75C4.46875 36.3192 4.93084 36.7812 5.5 36.7812H38.5C39.0692 36.7812 39.5312 36.3192 39.5312 35.75C39.5312 35.1808 39.0692 34.7188 38.5 34.7188V34.7188M27.1562 7.90625H34.7188V34.7188H27.1562V7.90625M17.5312 16.1562H25.0938V34.7188H17.5312V16.1562M9.28125 24.4062H15.4688V34.7188H9.28125V24.4062" fill="var(--fill-0, #A2A8A9)"/>
</g>
</svg>
