<svg preserveAspectRatio="none" width="100%" height="100%" overflow="visible" style="display: block;" viewBox="0 0 44 44" fill="none" xmlns="http://www.w3.org/2000/svg">
<g id="SVG - xml version=&#34;1.0&#34; encoding=&#34;UTF-8">
<path id="Vector" d="M15.7713 10.3537C15.3691 9.95113 15.3691 9.29887 15.7713 8.89625L21.2712 3.39625C21.6739 2.99413 22.3261 2.99413 22.7287 3.39625L28.2287 8.89625C28.5046 9.15333 28.6182 9.54051 28.5249 9.9059C28.4316 10.2713 28.1463 10.5566 27.7809 10.6499C27.4155 10.7432 27.0283 10.6296 26.7712 10.3537L23.0312 6.61547V16.5C23.0312 17.0692 22.5692 17.5312 22 17.5312C21.4308 17.5312 20.9687 17.0692 20.9687 16.5V6.61547L17.2287 10.3537C16.8261 10.7559 16.1739 10.7559 15.7713 10.3537V10.3537M26.7712 33.6462L23.0312 37.3845V27.5C23.0312 26.9308 22.5692 26.4687 22 26.4687C21.4308 26.4687 20.9687 26.9308 20.9687 27.5V37.3845L17.2287 33.6462C16.8224 33.2676 16.1892 33.2788 15.7965 33.6715C15.4038 34.0642 15.3926 34.6974 15.7713 35.1038L21.2712 40.6038C21.6739 41.0059 22.3261 41.0059 22.7287 40.6038L28.2287 35.1038C28.6074 34.6974 28.5962 34.0642 28.2035 33.6715C27.8108 33.2788 27.1776 33.2676 26.7712 33.6462V33.6462M40.6038 21.2712L35.1038 15.7713C34.6974 15.3926 34.0642 15.4038 33.6715 15.7965C33.2788 16.1892 33.2676 16.8224 33.6462 17.2287L37.3845 20.9687H27.5C26.9308 20.9687 26.4687 21.4308 26.4687 22C26.4687 22.5692 26.9308 23.0312 27.5 23.0312H37.3845L33.6462 26.7712C33.3704 27.0283 33.2568 27.4155 33.3501 27.7809C33.4434 28.1463 33.7287 28.4316 34.0941 28.5249C34.4595 28.6182 34.8467 28.5046 35.1038 28.2287L40.6038 22.7287C41.0059 22.3261 41.0059 21.6739 40.6038 21.2712V21.2712M6.61547 23.0312H16.5C17.0692 23.0312 17.5312 22.5692 17.5312 22C17.5312 21.4308 17.0692 20.9687 16.5 20.9687H6.61547L10.3537 17.2287C10.7324 16.8224 10.7212 16.1892 10.3285 15.7965C9.93576 15.4038 9.30258 15.3926 8.89625 15.7713L3.39625 21.2712C2.99413 21.6739 2.99413 22.3261 3.39625 22.7287L8.89625 28.2287C9.30258 28.6074 9.93576 28.5962 10.3285 28.2035C10.7212 27.8108 10.7324 27.1776 10.3537 26.7712L6.61547 23.0312" fill="var(--fill-0, #A2A8A9)"/>
</g>
</svg>
