<svg preserveAspectRatio="none" width="100%" height="100%" overflow="visible" style="display: block;" viewBox="0 0 44 44" fill="none" xmlns="http://www.w3.org/2000/svg">
<g id="SVG - xml version=&#34;1.0&#34; encoding=&#34;UTF-8">
<path id="Vector" d="M41.8688 25.575C41.4131 25.9167 40.7667 25.8244 40.425 25.3687C38.6798 23.0226 35.924 21.6448 33 21.6562C32.4308 21.6562 31.9687 21.1942 31.9687 20.625C31.9687 20.0558 32.4308 19.5938 33 19.5938C35.3222 19.5932 37.257 17.8143 37.452 15.5003C37.647 13.1863 36.0373 11.1086 33.7479 10.7194C31.4586 10.3303 29.2527 11.7594 28.6722 14.0078C28.5298 14.5593 27.9673 14.891 27.4158 14.7486C26.8643 14.6062 26.5326 14.0437 26.675 13.4922C27.387 10.7229 29.8176 8.73874 32.6734 8.59554C35.5292 8.45234 38.1461 10.1834 39.1316 12.8676C40.1171 15.5517 39.242 18.5649 36.972 20.3036C39.0056 21.0624 40.7773 22.3914 42.075 24.1312C42.4167 24.5869 42.3244 25.2333 41.8688 25.575V25.575M32.517 36.6094C32.6541 36.8462 32.6914 37.1277 32.6208 37.392C32.5502 37.6564 32.3775 37.8818 32.1406 38.0187C31.9843 38.1104 31.8062 38.1585 31.625 38.158C31.2563 38.1582 30.9156 37.9616 30.7313 37.6423C28.9074 34.5523 25.5864 32.6561 21.9983 32.6561C18.4101 32.6561 15.0891 34.5523 13.2653 37.6423C13.0897 37.978 12.7443 38.1904 12.3655 38.1955C11.9867 38.2006 11.6356 37.9977 11.451 37.6669C11.2664 37.3361 11.278 36.9308 11.4813 36.6111C12.8859 34.1977 15.0852 32.3472 17.7031 31.3758C14.7661 29.4688 13.4334 25.8571 14.4278 22.4995C15.4222 19.1419 18.5068 16.8384 22.0086 16.8384C25.5104 16.8384 28.595 19.1419 29.5894 22.4995C30.5838 25.8571 29.2511 29.4688 26.3141 31.3758C28.9247 32.3505 31.1168 34.2 32.517 36.6094V36.6094M22 30.5938C25.2253 30.5938 27.8437 27.9753 27.8437 24.75C27.8437 21.5247 25.2253 18.9062 22 18.9062C18.7747 18.9062 16.1562 21.5247 16.1562 24.75C16.1562 27.9753 18.7747 30.5938 22 30.5938V30.5938M12.0312 20.625C12.0312 20.0558 11.5692 19.5938 11 19.5938C8.67812 19.593 6.74362 17.8143 6.54847 15.5006C6.35332 13.1869 7.96253 11.1093 10.2515 10.7196C12.5404 10.33 14.7465 11.7582 15.3278 14.0061C15.4199 14.3629 15.6954 14.6434 16.0504 14.742C16.4054 14.8406 16.7861 14.7423 17.049 14.4842C17.3119 14.226 17.4171 13.8472 17.325 13.4905C16.613 10.7212 14.1824 8.73702 11.3266 8.59382C8.47081 8.45062 5.85391 10.1817 4.86842 12.8658C3.88292 15.55 4.75799 18.5632 7.02797 20.3019C4.9942 21.0612 3.22247 22.3907 1.925 24.1312C1.5835 24.5866 1.67592 25.2335 2.13125 25.575C2.58658 25.9165 3.2335 25.8241 3.575 25.3687C5.32025 23.0226 8.07596 21.6448 11 21.6562C11.5695 21.6562 12.0312 21.1945 12.0312 20.625V20.625" fill="var(--fill-0, #A2A8A9)"/>
</g>
</svg>
