<svg preserveAspectRatio="none" width="100%" height="100%" overflow="visible" style="display: block;" viewBox="0 0 44 44" fill="none" xmlns="http://www.w3.org/2000/svg">
<g id="SVG - xml version=&#34;1.0&#34; encoding=&#34;UTF-8">
<path id="Vector" d="M29.2188 19.25C29.2188 19.8192 28.7567 20.2812 28.1875 20.2812H16.5C15.9308 20.2812 15.4688 19.8192 15.4688 19.25C15.4688 18.6808 15.9308 18.2188 16.5 18.2188H28.1875C28.7567 18.2188 29.2188 18.6808 29.2188 19.25V19.25M28.1875 23.7188H16.5C15.9308 23.7188 15.4688 24.1808 15.4688 24.75C15.4688 25.3192 15.9308 25.7812 16.5 25.7812H28.1875C28.7567 25.7812 29.2188 25.3192 29.2188 24.75C29.2188 24.1808 28.7567 23.7188 28.1875 23.7188V23.7188M39.5312 21.3125C39.5208 30.6107 31.9857 38.1458 22.6875 38.1562H8.25C6.92195 38.1562 5.84375 37.078 5.84375 35.75V21.3125C5.84375 12.0162 13.3912 4.46875 22.6875 4.46875C31.9838 4.46875 39.5312 12.0162 39.5312 21.3125V21.3125M37.4688 21.3125C37.4688 13.1545 30.8455 6.53125 22.6875 6.53125C14.5295 6.53125 7.90625 13.1545 7.90625 21.3125V35.75C7.90625 35.9397 8.06028 36.0938 8.25 36.0938H22.6875C30.847 36.0843 37.4593 29.472 37.4688 21.3125V21.3125" fill="var(--fill-0, #A2A8A9)"/>
</g>
</svg>
