<svg preserveAspectRatio="none" width="100%" height="100%" overflow="visible" style="display: block;" viewBox="0 0 44 44" fill="none" xmlns="http://www.w3.org/2000/svg">
<g id="SVG - xml version=&#34;1.0&#34; encoding=&#34;UTF-8">
<path id="Vector" d="M22 4.46875C21.4308 4.46875 20.9687 4.93084 20.9687 5.5V15.125C20.9687 15.6942 21.4308 16.1562 22 16.1562C24.6448 16.1566 26.9597 17.9334 27.6439 20.4882C28.3282 23.043 27.2112 25.7388 24.9206 27.0611C22.63 28.3833 19.7369 28.0022 17.8668 26.132C15.9967 24.2618 15.6159 21.3686 16.9383 19.0781C17.0752 18.8411 17.1123 18.5594 17.0413 18.2951C16.9704 18.0307 16.7973 17.8054 16.5602 17.6687L8.22422 12.8562C7.98722 12.7193 7.70551 12.6823 7.44116 12.7532C7.1768 12.8241 6.95149 12.9972 6.81484 13.2344C2.8476 20.1059 3.99009 28.7852 9.60042 34.396C15.2107 40.0067 23.8901 41.1499 30.7618 37.1832C37.6336 33.2164 40.9845 25.1289 38.9318 17.4645C36.879 9.80013 29.9345 4.46995 22 4.46875V4.46875M8.11422 15.1748L14.6953 18.9733C14.2979 19.9329 14.0935 20.9614 14.0938 22C14.0949 22.3449 14.1179 22.6893 14.1625 23.0312L6.82344 24.9992C6.16829 21.6714 6.62169 18.2205 8.11422 15.1748V15.1748M7.35797 26.9844L14.697 25.0181C15.7815 27.6247 18.1704 29.4577 20.9687 29.8306V37.4275C14.7437 37.0026 9.37999 32.8872 7.35797 26.9844V26.9844M23.0312 37.4344V29.8375C26.9641 29.3188 29.9036 25.966 29.9036 21.9991C29.9036 18.0323 26.9641 14.6795 23.0312 14.1608V6.56562C31.1562 7.1082 37.4693 13.8569 37.4693 22C37.4693 30.1431 31.1562 36.8918 23.0312 37.4344V37.4344" fill="var(--fill-0, #A2A8A9)"/>
</g>
</svg>
