<svg preserveAspectRatio="none" width="100%" height="100%" overflow="visible" style="display: block;" viewBox="0 0 44 44" fill="none" xmlns="http://www.w3.org/2000/svg">
<g id="SVG - xml version=&#34;1.0&#34; encoding=&#34;UTF-8">
<path id="Vector" d="M36.3137 34.2031C37.9746 32.8099 38.5867 30.5267 37.8454 28.4895C37.1041 26.4524 35.1678 25.0964 33 25.0964C30.8322 25.0964 28.8959 26.4524 28.1546 28.4895C27.4133 30.5267 28.0254 32.8099 29.6863 34.2031C28.1187 35.0589 26.9688 36.518 26.5031 38.2422C26.4329 38.5066 26.4706 38.788 26.6079 39.0246C26.7452 39.2612 26.9709 39.4336 27.2353 39.5037C27.3218 39.5261 27.4107 39.5377 27.5 39.5381C27.9677 39.5382 28.3768 39.2236 28.4969 38.7716C29.0228 36.7813 30.8739 35.4062 33 35.4062C35.1261 35.4062 36.9772 36.7812 37.5031 38.7647C37.6492 39.3149 38.2145 39.643 38.7647 39.4969C39.3149 39.3508 39.643 38.7855 39.4969 38.2353C39.0295 36.5137 37.8798 35.0574 36.3137 34.2031V34.2031M33 27.1562C34.7075 27.1562 36.0938 28.5425 36.0938 30.25C36.0938 31.9575 34.7075 33.3438 33 33.3438C31.2925 33.3438 29.9062 31.9575 29.9062 30.25C29.9062 28.5425 31.2925 27.1562 33 27.1562V27.1562M39.5312 15.125V20.625C39.5312 21.1942 39.0692 21.6562 38.5 21.6562C37.9308 21.6562 37.4688 21.1942 37.4688 20.625V15.125C37.4688 14.9353 37.3147 14.7812 37.125 14.7812H22.4589C21.9383 14.7812 21.4317 14.6124 21.0152 14.3L16.2473 10.725C16.1878 10.6804 16.1155 10.6562 16.0411 10.6562H6.875C6.68528 10.6562 6.53125 10.8103 6.53125 11V34.375C6.53125 34.5647 6.68528 34.7188 6.875 34.7188H20.625C21.1942 34.7188 21.6562 35.1808 21.6562 35.75C21.6562 36.3192 21.1942 36.7812 20.625 36.7812H6.875C5.54695 36.7812 4.46875 35.703 4.46875 34.375V11C4.46875 9.67195 5.54695 8.59375 6.875 8.59375H16.0411C16.5617 8.59375 17.0683 8.76262 17.4848 9.075L22.2527 12.65C22.3122 12.6946 22.3845 12.7188 22.4589 12.7188H37.125C38.453 12.7188 39.5312 13.797 39.5312 15.125V15.125" fill="var(--fill-0, #A2A8A9)"/>
</g>
</svg>
